<?xml version="1.0" encoding="utf-8"?>
<!-- Generator: Adobe Illustrator 23.0.4, SVG Export Plug-In . SVG Version: 6.00 Build 0)  -->
<svg version="1.1" id="Layer_1" xmlns="http://www.w3.org/2000/svg" xmlns:xlink="http://www.w3.org/1999/xlink" x="0px" y="0px"
	 viewBox="0 0 66 53" style="enable-background:new 0 0 66 53;" xml:space="preserve">
<style type="text/css">
	.st0{fill:#4CD964;}
	.st1{fill:none;stroke:#4CD964;}
	.st2{fill:#FFFFFF;}
</style>
<g id="Ellipse_5">
	<circle class="st0" cx="32.9" cy="26" r="22"/>
	<circle class="st1" cx="32.9" cy="26" r="21.3"/>
</g>
<g id="Group_169" transform="translate(7.454 10.427)">
	<path id="Path_511" class="st2" d="M35.8,8.1l-14,14L17,17.2c-0.8-0.8-2.1-0.9-3-0.1c-0.8,0.8-0.9,2.1-0.1,3c0,0,0,0,0.1,0.1
		l6.4,6.4c0.4,0.4,0.9,0.6,1.5,0.6c0.6,0,1.1-0.2,1.5-0.6l15.5-15.5c0.8-0.8,0.8-2.2-0.1-3C37.9,7.3,36.7,7.3,35.8,8.1L35.8,8.1z"/>
</g>
</svg>
