<?xml version="1.0" encoding="utf-8"?>
<!-- Generator: Adobe Illustrator 23.0.4, SVG Export Plug-In . SVG Version: 6.00 Build 0)  -->
<svg version="1.1" id="Layer_1" xmlns="http://www.w3.org/2000/svg" xmlns:xlink="http://www.w3.org/1999/xlink" x="0px" y="0px"
	 viewBox="0 0 512 512" style="enable-background:new 0 0 512 512;" xml:space="preserve">
<style type="text/css">
	.st0{fill-rule:evenodd;clip-rule:evenodd;}
</style>
<g id="C_-_41_x2C__statistics_x2C__Analysis_x2C__analytics_x2C__business_x2C__chart_x2C__graph_x2C__market">
	<g>
		<polygon class="st0" points="233.7,175.6 233.7,322.8 269.3,322.8 269.3,153.4 233.7,153.4 		"/>
		<polygon class="st0" points="188.8,202.4 188.8,322.8 224.4,322.8 224.4,180.2 188.8,180.2 		"/>
		<polygon class="st0" points="404,81.9 368.4,81.9 368.4,104.1 368.4,322.8 404,322.8 		"/>
		<polygon class="st0" points="278.6,148.7 278.6,322.8 314.2,322.8 314.2,135.6 278.6,135.6 		"/>
		<polygon class="st0" points="143.5,52.8 105.6,90.4 143.5,90.4 		"/>
		<polygon class="st0" points="63.1,368.1 63.1,403.4 98.6,403.4 98.6,368.1 94.3,368.1 		"/>
		<rect x="143.9" y="207.1" class="st0" width="35.5" height="115.8"/>
		<polygon class="st0" points="278.6,401.5 322.8,385.8 278.6,370.1 		"/>
		<path class="st0" d="M152.8,95.1c0,2.6-2.1,4.7-4.7,4.7H99v258.9h4.3h170.6c0,0,0,0,0.1,0c0.3,0,0.5,0,0.8,0.1c0,0,0.1,0,0.1,0
			c0.2,0,0.4,0.1,0.6,0.2l62.9,22.3c1.9,0.7,3.1,2.4,3.1,4.4c0,2-1.2,3.8-3.1,4.4l-62.9,22.3c-0.1,0-0.3,0.1-0.4,0.1
			c-0.1,0-0.2,0.1-0.3,0.1c-0.3,0.1-0.6,0.1-0.9,0.1l0,0l-170.6,0c0,0,0,0,0,0h0H99v53h349.8l0.1-419.7H152.8V95.1z M363.7,443.7
			h-17.9v-17.9h17.9V443.7z M390.7,443.7h-17.9v-17.9h17.9V443.7z M417.6,443.7h-17.9v-17.9h17.9V443.7z M359.1,77.2
			c0-2.6,2.1-4.7,4.7-4.7h44.9c2.6,0,4.7,2.1,4.7,4.7v250.3c0,2.6-2.1,4.7-4.7,4.7h-44.9h-44.9h-44.9H229h-44.9h-44.9
			c-2.6,0-4.7-2.1-4.7-4.7V202.4c0-2.6,2.1-4.7,4.7-4.7h40.2v-22.1c0-2.6,2.1-4.7,4.7-4.7h40.2v-22.1c0-2.6,2.1-4.7,4.7-4.7h40.2
			v-13.2c0-2.6,2.1-4.7,4.7-4.7h40.2V104c0-2.6,2.1-4.7,4.7-4.7h40.2L359.1,77.2L359.1,77.2z M175.2,135.1h25l34.6-34.4
			c0.9-0.9,2.1-1.4,3.3-1.4h43L315.5,65c1.8-1.8,4.8-1.8,6.6,0c1.8,1.8,1.8,4.8,0,6.6l-35.9,35.8c-0.9,0.9-2.1,1.4-3.3,1.4h-43
			l-34.5,34.4c-0.9,0.9-2.1,1.4-3.3,1.4h-25.8l-52.9,26.3c-0.7,0.3-1.4,0.5-2.1,0.5c-1.7,0-3.4-1-4.2-2.6c-1.2-2.3-0.2-5.1,2.1-6.3
			l53.9-26.8C173.7,135.3,174.4,135.1,175.2,135.1z"/>
		<rect x="108" y="368.1" class="st0" width="161.3" height="35.3"/>
		<polygon class="st0" points="359.1,108.7 323.5,108.7 323.5,130.9 323.5,322.8 359.1,322.8 		"/>
	</g>
</g>
</svg>
