<?xml version="1.0" encoding="utf-8"?>
<!-- Generator: Adobe Illustrator 23.0.4, SVG Export Plug-In . SVG Version: 6.00 Build 0)  -->
<svg version="1.1" id="Layer_1" xmlns="http://www.w3.org/2000/svg" xmlns:xlink="http://www.w3.org/1999/xlink" x="0px" y="0px"
	 viewBox="0 0 95 93" style="enable-background:new 0 0 95 93;" xml:space="preserve">
<style type="text/css">
	.st0{fill:#FF0000;}
	.st1{fill:#F22121;stroke:#F22121;}
	.st2{fill:none;}
</style>
<g id="Group_227">
	<path id="Path_512" class="st0" d="M16.6,59.9c-0.4-1-1.5-1.4-2.5-1c-1,0.4-1.4,1.5-1,2.5c0.3,0.7,1,1.2,1.7,1.2
		c0.3,0,0.5-0.1,0.8-0.2C16.6,62,17,60.9,16.6,59.9z"/>
	<path id="Path_513" class="st0" d="M14.5,53.3c-0.2-1-1.2-1.7-2.2-1.5c-1,0.2-1.7,1.2-1.5,2.2c0.2,0.9,1,1.5,1.9,1.5
		c0.1,0,0.3,0,0.4,0C14.1,55.3,14.7,54.3,14.5,53.3C14.5,53.3,14.5,53.3,14.5,53.3z"/>
	<path id="Path_514" class="st0" d="M29,17.3c0.4,0,0.7-0.1,1-0.3c0.9-0.6,1.2-1.7,0.6-2.6c-0.6-0.9-1.7-1.2-2.6-0.6
		c-0.9,0.6-1.2,1.7-0.6,2.6C27.8,17,28.4,17.3,29,17.3z"/>
	<path id="Path_515" class="st0" d="M23.2,21.8c0.5,0,1-0.2,1.3-0.5c0.8-0.7,0.8-2,0-2.7c-0.7-0.7-1.9-0.8-2.7-0.1l0,0
		c-0.8,0.7-0.8,1.9-0.1,2.7C22.2,21.6,22.7,21.8,23.2,21.8z"/>
	<path id="Path_516" class="st0" d="M11.9,48.2c1.1,0,1.9-0.9,1.9-1.9v-0.1c0-1.1-0.9-1.9-1.9-1.9c-1.1,0-1.9,0.9-1.9,1.9v0.1
		C10,47.4,10.9,48.2,11.9,48.2L11.9,48.2z"/>
	<path id="Path_517" class="st0" d="M21.9,71.4c-0.7,0.8-0.7,2,0.1,2.7s2,0.7,2.7-0.1c0.7-0.8,0.7-2-0.1-2.7c0,0,0,0,0,0
		C23.8,70.6,22.6,70.6,21.9,71.4z"/>
	<path id="Path_518" class="st0" d="M12.3,40.8c0.1,0,0.3,0,0.4,0c0.9,0,1.7-0.6,1.9-1.5c0.2-1-0.5-2-1.5-2.3s-2,0.5-2.3,1.5l0,0
		C10.6,39.6,11.2,40.6,12.3,40.8z"/>
	<path id="Path_519" class="st0" d="M81.2,35.9L81.2,35.9c0.2,0.8,1,1.3,1.8,1.3c0.2,0,0.4,0,0.6-0.1c1-0.3,1.6-1.4,1.2-2.4l0,0
		c-0.3-1-1.4-1.6-2.4-1.3C81.4,33.8,80.9,34.8,81.2,35.9C81.2,35.8,81.2,35.9,81.2,35.9L81.2,35.9z"/>
	<path id="Path_520" class="st0" d="M50,11.8h0.1c1.1,0,1.9-0.8,1.9-1.9c0-1-0.8-1.9-1.8-1.9c-1,0-1.9,0.8-2,1.8
		C48.2,10.9,49,11.7,50,11.8z"/>
	<path id="Path_521" class="st0" d="M56.9,12.8c0.2,0,0.3,0.1,0.5,0.1c1.1,0,1.9-0.8,1.9-1.9c0-1.1-0.8-1.9-1.9-1.9
		c-1.1,0-1.9,0.8-1.9,1.9C55.5,11.9,56.1,12.6,56.9,12.8z"/>
	<path id="Path_522" class="st0" d="M84.3,40.6c-1,0.1-1.9,0.9-1.8,2c0.1,1,0.9,1.9,2,1.8l0,0c0.1,0,0.1,0,0.2,0
		c1-0.1,1.8-1,1.7-2.1C86.3,41.3,85.4,40.5,84.3,40.6L84.3,40.6z"/>
	<path id="Path_523" class="st0" d="M30.1,75.6c-0.9-0.5-2.1-0.2-2.6,0.7c-0.5,0.9-0.3,2,0.6,2.6c0.3,0.2,0.6,0.3,1,0.3
		c0.7,0,1.3-0.3,1.6-0.9C31.3,77.3,31,76.1,30.1,75.6z"/>
	<path id="Path_524" class="st0" d="M42.8,12.2c0.1,0,0.2,0,0.3,0c1-0.2,1.7-1.2,1.6-2.2c-0.2-1-1.2-1.7-2.2-1.6
		c-1,0.2-1.7,1.1-1.6,2.2C41,11.5,41.8,12.2,42.8,12.2z"/>
	<path id="Path_525" class="st0" d="M14.1,33.7c0.2,0.1,0.5,0.2,0.7,0.2c0.8,0,1.5-0.5,1.7-1.2c0.4-1,0-2.1-1-2.5
		c-1-0.4-2.1,0-2.5,1C12.7,32.1,13.1,33.2,14.1,33.7C14.1,33.6,14.1,33.6,14.1,33.7L14.1,33.7z"/>
	<path id="Path_526" class="st0" d="M17.3,27c0.3,0.2,0.7,0.3,1.1,0.3c0.6,0,1.2-0.3,1.6-0.8c0.6-0.9,0.4-2.1-0.5-2.7
		c-0.9-0.6-2.1-0.4-2.7,0.5C16.3,25.3,16.5,26.4,17.3,27L17.3,27z"/>
	<path id="Path_527" class="st0" d="M17.4,65.5c-0.9,0.6-1.1,1.8-0.5,2.7c0.4,0.5,0.9,0.8,1.6,0.8c0.4,0,0.8-0.1,1.1-0.4
		c0.9-0.6,1.1-1.8,0.5-2.7C19.4,65.1,18.2,64.9,17.4,65.5L17.4,65.5z"/>
	<path id="Path_528" class="st0" d="M80.1,30.5c1,0,1.9-0.9,1.9-1.9s-0.9-1.9-1.9-1.9s-1.9,0.9-1.9,1.9c0,0.3,0.1,0.6,0.2,0.9
		C78.8,30.1,79.4,30.5,80.1,30.5z"/>
	<path id="Path_529" class="st0" d="M77.2,68.5c-0.8-0.7-2-0.6-2.7,0.2c-0.7,0.8-0.6,2,0.2,2.7l0,0c0.3,0.3,0.8,0.5,1.2,0.5
		c0.6,0,1.1-0.2,1.4-0.7C78.1,70.4,78,69.2,77.2,68.5z"/>
	<path id="Path_530" class="st0" d="M75.9,24.4c1.1,0,1.9-0.9,1.9-1.9c0-1.1-0.9-1.9-1.9-1.9c-1.1,0-1.9,0.9-1.9,1.9
		c0,0.5,0.2,0.9,0.5,1.2C74.8,24.2,75.3,24.4,75.9,24.4z"/>
	<path id="Path_531" class="st0" d="M84.7,48c-1-0.1-2,0.7-2.1,1.7c-0.1,1,0.7,2,1.7,2.1c0.1,0,0.1,0,0.2,0c1.1,0,1.9-0.9,1.9-1.9
		C86.4,48.9,85.7,48.1,84.7,48L84.7,48z"/>
	<path id="Path_532" class="st0" d="M35.6,14c0.2,0,0.5,0,0.7-0.1c1-0.4,1.5-1.5,1.1-2.4c-0.4-1-1.5-1.5-2.4-1.1
		c-1,0.4-1.5,1.5-1.1,2.4C34.1,13.5,34.8,14,35.6,14z"/>
	<path id="Path_533" class="st0" d="M81.1,62.2C80.1,61.7,79,62,78.5,63s-0.2,2.1,0.7,2.6c0.9,0.5,2.1,0.2,2.6-0.7c0,0,0,0,0,0
		C82.3,63.9,82,62.7,81.1,62.2C81.1,62.2,81.1,62.2,81.1,62.2z"/>
	<path id="Path_534" class="st0" d="M83.6,55.3c-1-0.3-2.1,0.3-2.4,1.3c-0.3,1,0.3,2.1,1.3,2.4C82.7,59,82.9,59,83,59
		c1,0,1.9-0.8,1.9-1.9C85,56.3,84.4,55.5,83.6,55.3L83.6,55.3z"/>
	<path id="Path_535" class="st0" d="M69.4,73.5L69.4,73.5c-0.8,0.6-1,1.8-0.3,2.7c0,0,0,0,0,0c0.4,0.5,0.9,0.7,1.5,0.7
		c1,0,1.9-0.8,1.9-1.9c0-0.4-0.1-0.8-0.4-1.2C71.5,73,70.3,72.9,69.4,73.5z"/>
	<path id="Path_536" class="st0" d="M50.1,80.7c-1,0.1-1.9,1-1.8,2c0,1,0.9,1.8,1.9,1.8h0.1c1.1-0.1,1.9-0.9,1.8-2
		C52.1,81.4,51.2,80.6,50.1,80.7L50.1,80.7z"/>
	<path id="Path_537" class="st0" d="M43.1,80.4c-1-0.2-2,0.6-2.2,1.6c-0.2,1,0.6,2,1.6,2.2c0.1,0,0.2,0,0.3,0c1,0,1.9-0.8,1.9-1.9
		C44.8,81.3,44.1,80.5,43.1,80.4L43.1,80.4z"/>
	<path id="Path_538" class="st0" d="M36.4,78.6c-1-0.4-2.1,0.1-2.4,1.1c-0.4,1,0.1,2.1,1.1,2.4l0,0c0.2,0.1,0.4,0.1,0.7,0.1
		c1,0,1.9-0.8,1.9-1.9C37.6,79.6,37.1,78.9,36.4,78.6L36.4,78.6z"/>
	<path id="Path_539" class="st0" d="M57,79.6c-1,0.3-1.6,1.3-1.4,2.3c0.2,0.8,1,1.4,1.8,1.4c0.2,0,0.3,0,0.5-0.1
		c1-0.3,1.6-1.3,1.4-2.3S58,79.4,57,79.6L57,79.6z"/>
	<path id="Path_540" class="st0" d="M63.5,77.2c-0.9,0.5-1.3,1.6-0.9,2.6c0.3,0.7,1,1.1,1.7,1.1c0.3,0,0.6-0.1,0.8-0.2
		c1-0.4,1.4-1.6,0.9-2.5C65.7,77.1,64.6,76.7,63.5,77.2C63.6,77.2,63.6,77.2,63.5,77.2L63.5,77.2z"/>
	<path id="Path_541" class="st0" d="M63.5,15.3c0.3,0.1,0.6,0.2,0.8,0.2c1.1,0,1.9-0.8,1.9-1.9c0-0.7-0.4-1.4-1.1-1.7l0,0
		c-0.9-0.5-2.1-0.1-2.6,0.8C62.1,13.6,62.4,14.8,63.5,15.3C63.4,15.3,63.4,15.3,63.5,15.3L63.5,15.3z"/>
	<path id="Path_542" class="st0" d="M69.4,19c0.8,0.6,2,0.5,2.7-0.3c0.6-0.8,0.5-2-0.3-2.7c-0.8-0.6-2-0.5-2.7,0.3
		C68.4,17.1,68.5,18.3,69.4,19C69.4,19,69.4,19,69.4,19z"/>
</g>
<g id="baseline-clear-24px" transform="translate(27.968 27.968)">
	<path id="Path_3" class="st1" d="M26.7,13.6l-1.2-1.2l-4.9,4.9l-4.9-4.9l-1.2,1.2l4.9,4.9l-4.9,4.9l1.2,1.2l4.9-4.9l4.9,4.9
		l1.2-1.2l-4.9-4.9L26.7,13.6z"/>
	<path id="Path_4" class="st2" d="M10,8h21.1v21.1H10V8z"/>
</g>
</svg>
