<?xml version="1.0" encoding="utf-8"?>
<!-- Generator: Adobe Illustrator 23.0.4, SVG Export Plug-In . SVG Version: 6.00 Build 0)  -->
<svg version="1.1" id="Layer_1" xmlns="http://www.w3.org/2000/svg" xmlns:xlink="http://www.w3.org/1999/xlink" x="0px" y="0px"
	 viewBox="0 0 95 93" style="enable-background:new 0 0 95 93;" xml:space="preserve">
<style type="text/css">
	.st0{fill:#4CD964;}
</style>
<g id="Group_169" transform="translate(26.454 29.314)">
	<path id="Path_511" class="st0" d="M29.4,7.5L16.7,20.3l-4.4-4.4c-0.8-0.7-2-0.7-2.7,0.1c-0.7,0.7-0.7,1.9,0,2.6l5.8,5.8
		c0.4,0.4,0.8,0.6,1.4,0.6c0.5,0,1-0.2,1.4-0.6l14.1-14.1c0.8-0.7,0.8-2,0-2.7C31.4,6.8,30.2,6.8,29.4,7.5L29.4,7.5z"/>
</g>
<g id="Group_227">
	<path id="Path_512" class="st0" d="M15.6,58.9c-0.4-1-1.5-1.4-2.5-1c-1,0.4-1.4,1.5-1,2.5c0.3,0.7,1,1.2,1.7,1.2
		c0.3,0,0.5-0.1,0.8-0.2C15.6,61,16,59.9,15.6,58.9z"/>
	<path id="Path_513" class="st0" d="M13.5,52.3c-0.2-1-1.2-1.7-2.2-1.5C10.2,51,9.6,52,9.8,53c0.2,0.9,1,1.5,1.9,1.5
		c0.1,0,0.3,0,0.4,0C13.1,54.3,13.7,53.3,13.5,52.3C13.5,52.3,13.5,52.3,13.5,52.3z"/>
	<path id="Path_514" class="st0" d="M28,16.3c0.4,0,0.7-0.1,1-0.3c0.9-0.6,1.2-1.7,0.6-2.6c-0.6-0.9-1.7-1.2-2.6-0.6
		c-0.9,0.6-1.2,1.7-0.6,2.6C26.8,16,27.4,16.3,28,16.3z"/>
	<path id="Path_515" class="st0" d="M22.2,20.8c0.5,0,1-0.2,1.3-0.5c0.8-0.7,0.8-2,0-2.7c-0.7-0.7-1.9-0.8-2.7-0.1l0,0
		c-0.8,0.7-0.8,1.9-0.1,2.7C21.2,20.6,21.7,20.8,22.2,20.8z"/>
	<path id="Path_516" class="st0" d="M10.9,47.2c1.1,0,1.9-0.9,1.9-1.9v-0.1c0-1.1-0.9-1.9-1.9-1.9c-1.1,0-1.9,0.9-1.9,1.9v0.1
		C9,46.4,9.9,47.2,10.9,47.2L10.9,47.2z"/>
	<path id="Path_517" class="st0" d="M20.9,70.4c-0.7,0.8-0.7,2,0.1,2.7s2,0.7,2.7-0.1c0.7-0.8,0.7-2-0.1-2.7c0,0,0,0,0,0
		C22.8,69.6,21.6,69.6,20.9,70.4z"/>
	<path id="Path_518" class="st0" d="M11.3,39.8c0.1,0,0.3,0,0.4,0c0.9,0,1.7-0.6,1.9-1.5c0.2-1-0.5-2-1.5-2.3s-2,0.5-2.3,1.5l0,0
		C9.6,38.6,10.2,39.6,11.3,39.8z"/>
	<path id="Path_519" class="st0" d="M80.2,34.9L80.2,34.9c0.2,0.8,1,1.3,1.8,1.3c0.2,0,0.4,0,0.6-0.1c1-0.3,1.6-1.4,1.2-2.4l0,0
		c-0.3-1-1.4-1.6-2.4-1.3C80.4,32.8,79.9,33.8,80.2,34.9C80.2,34.8,80.2,34.9,80.2,34.9L80.2,34.9z"/>
	<path id="Path_520" class="st0" d="M49,10.8h0.1c1.1,0,1.9-0.8,1.9-1.9c0-1-0.8-1.9-1.8-1.9c-1,0-1.9,0.8-2,1.8
		C47.2,9.9,48,10.7,49,10.8z"/>
	<path id="Path_521" class="st0" d="M55.9,11.8c0.2,0,0.3,0.1,0.5,0.1c1.1,0,1.9-0.8,1.9-1.9c0-1.1-0.8-1.9-1.9-1.9
		c-1.1,0-1.9,0.8-1.9,1.9C54.5,10.9,55.1,11.6,55.9,11.8z"/>
	<path id="Path_522" class="st0" d="M83.3,39.6c-1,0.1-1.9,0.9-1.8,2c0.1,1,0.9,1.9,2,1.8l0,0c0.1,0,0.1,0,0.2,0
		c1-0.1,1.8-1,1.7-2.1C85.3,40.3,84.4,39.5,83.3,39.6L83.3,39.6z"/>
	<path id="Path_523" class="st0" d="M29.1,74.6c-0.9-0.5-2.1-0.2-2.6,0.7c-0.5,0.9-0.3,2,0.6,2.6c0.3,0.2,0.6,0.3,1,0.3
		c0.7,0,1.3-0.3,1.6-0.9C30.3,76.3,30,75.1,29.1,74.6z"/>
	<path id="Path_524" class="st0" d="M41.8,11.2c0.1,0,0.2,0,0.3,0c1-0.2,1.7-1.2,1.6-2.2c-0.2-1-1.2-1.7-2.2-1.6
		c-1,0.2-1.7,1.1-1.6,2.2C40,10.5,40.8,11.2,41.8,11.2z"/>
	<path id="Path_525" class="st0" d="M13.1,32.7c0.2,0.1,0.5,0.2,0.7,0.2c0.8,0,1.5-0.5,1.7-1.2c0.4-1,0-2.1-1-2.5
		c-1-0.4-2.1,0-2.5,1C11.7,31.1,12.1,32.2,13.1,32.7C13.1,32.6,13.1,32.6,13.1,32.7L13.1,32.7z"/>
	<path id="Path_526" class="st0" d="M16.3,26c0.3,0.2,0.7,0.3,1.1,0.3c0.6,0,1.2-0.3,1.6-0.8c0.6-0.9,0.4-2.1-0.5-2.7
		c-0.9-0.6-2.1-0.4-2.7,0.5C15.3,24.3,15.5,25.4,16.3,26L16.3,26z"/>
	<path id="Path_527" class="st0" d="M16.4,64.5c-0.9,0.6-1.1,1.8-0.5,2.7c0.4,0.5,0.9,0.8,1.6,0.8c0.4,0,0.8-0.1,1.1-0.4
		c0.9-0.6,1.1-1.8,0.5-2.7C18.4,64.1,17.2,63.9,16.4,64.5L16.4,64.5z"/>
	<path id="Path_528" class="st0" d="M79.1,29.5c1,0,1.9-0.9,1.9-1.9s-0.9-1.9-1.9-1.9s-1.9,0.9-1.9,1.9c0,0.3,0.1,0.6,0.2,0.9
		C77.8,29.1,78.4,29.5,79.1,29.5z"/>
	<path id="Path_529" class="st0" d="M76.2,67.5c-0.8-0.7-2-0.6-2.7,0.2c-0.7,0.8-0.6,2,0.2,2.7l0,0c0.3,0.3,0.8,0.5,1.2,0.5
		c0.6,0,1.1-0.2,1.4-0.7C77.1,69.4,77,68.2,76.2,67.5z"/>
	<path id="Path_530" class="st0" d="M74.9,23.4c1.1,0,1.9-0.9,1.9-1.9c0-1.1-0.9-1.9-1.9-1.9c-1.1,0-1.9,0.9-1.9,1.9
		c0,0.5,0.2,0.9,0.5,1.2C73.8,23.2,74.3,23.4,74.9,23.4z"/>
	<path id="Path_531" class="st0" d="M83.7,47c-1-0.1-2,0.7-2.1,1.7c-0.1,1,0.7,2,1.7,2.1c0.1,0,0.1,0,0.2,0c1.1,0,1.9-0.9,1.9-1.9
		C85.4,47.9,84.7,47.1,83.7,47L83.7,47z"/>
	<path id="Path_532" class="st0" d="M34.6,13c0.2,0,0.5,0,0.7-0.1c1-0.4,1.5-1.5,1.1-2.4C36.1,9.5,35,9,34,9.3
		c-1,0.4-1.5,1.5-1.1,2.4C33.1,12.5,33.8,13,34.6,13z"/>
	<path id="Path_533" class="st0" d="M80.1,61.2C79.1,60.7,78,61,77.5,62s-0.2,2.1,0.7,2.6c0.9,0.5,2.1,0.2,2.6-0.7c0,0,0,0,0,0
		C81.3,62.9,81,61.7,80.1,61.2C80.1,61.2,80.1,61.2,80.1,61.2z"/>
	<path id="Path_534" class="st0" d="M82.6,54.3c-1-0.3-2.1,0.3-2.4,1.3c-0.3,1,0.3,2.1,1.3,2.4C81.7,58,81.9,58,82,58
		c1,0,1.9-0.8,1.9-1.9C84,55.3,83.4,54.5,82.6,54.3L82.6,54.3z"/>
	<path id="Path_535" class="st0" d="M68.4,72.5L68.4,72.5c-0.8,0.6-1,1.8-0.3,2.7c0,0,0,0,0,0c0.4,0.5,0.9,0.7,1.5,0.7
		c1,0,1.9-0.8,1.9-1.9c0-0.4-0.1-0.8-0.4-1.2C70.5,72,69.3,71.9,68.4,72.5z"/>
	<path id="Path_536" class="st0" d="M49.1,79.7c-1,0.1-1.9,1-1.8,2c0,1,0.9,1.8,1.9,1.8h0.1c1.1-0.1,1.9-0.9,1.8-2
		C51.1,80.4,50.2,79.6,49.1,79.7L49.1,79.7z"/>
	<path id="Path_537" class="st0" d="M42.1,79.4c-1-0.2-2,0.6-2.2,1.6c-0.2,1,0.6,2,1.6,2.2c0.1,0,0.2,0,0.3,0c1,0,1.9-0.8,1.9-1.9
		C43.8,80.3,43.1,79.5,42.1,79.4L42.1,79.4z"/>
	<path id="Path_538" class="st0" d="M35.4,77.6c-1-0.4-2.1,0.1-2.4,1.1c-0.4,1,0.1,2.1,1.1,2.4l0,0c0.2,0.1,0.4,0.1,0.7,0.1
		c1,0,1.9-0.8,1.9-1.9C36.6,78.6,36.1,77.9,35.4,77.6L35.4,77.6z"/>
	<path id="Path_539" class="st0" d="M56,78.6c-1,0.3-1.6,1.3-1.4,2.3c0.2,0.8,1,1.4,1.8,1.4c0.2,0,0.3,0,0.5-0.1
		c1-0.3,1.6-1.3,1.4-2.3S57,78.4,56,78.6L56,78.6z"/>
	<path id="Path_540" class="st0" d="M62.5,76.2c-0.9,0.5-1.3,1.6-0.9,2.6c0.3,0.7,1,1.1,1.7,1.1c0.3,0,0.6-0.1,0.8-0.2
		c1-0.4,1.4-1.6,0.9-2.5C64.7,76.1,63.6,75.7,62.5,76.2C62.6,76.2,62.6,76.2,62.5,76.2L62.5,76.2z"/>
	<path id="Path_541" class="st0" d="M62.5,14.3c0.3,0.1,0.6,0.2,0.8,0.2c1.1,0,1.9-0.8,1.9-1.9c0-0.7-0.4-1.4-1.1-1.7l0,0
		c-0.9-0.5-2.1-0.1-2.6,0.8C61.1,12.6,61.4,13.8,62.5,14.3C62.4,14.3,62.4,14.3,62.5,14.3L62.5,14.3z"/>
	<path id="Path_542" class="st0" d="M68.4,18c0.8,0.6,2,0.5,2.7-0.3c0.6-0.8,0.5-2-0.3-2.7c-0.8-0.6-2-0.5-2.7,0.3
		C67.4,16.1,67.5,17.3,68.4,18C68.4,18,68.4,18,68.4,18z"/>
</g>
</svg>
