<?xml version="1.0" encoding="utf-8"?>
<!-- Generator: Adobe Illustrator 23.0.4, SVG Export Plug-In . SVG Version: 6.00 Build 0)  -->
<svg version="1.1" id="Layer_1" xmlns="http://www.w3.org/2000/svg" xmlns:xlink="http://www.w3.org/1999/xlink" x="0px" y="0px"
	 viewBox="0 0 60 60" style="enable-background:new 0 0 60 60;" xml:space="preserve">
<style type="text/css">
	.st0{fill-rule:evenodd;clip-rule:evenodd;fill:#FFFFFF;}
	.st1{fill-rule:evenodd;clip-rule:evenodd;fill:#F79F1A;}
	.st2{fill-rule:evenodd;clip-rule:evenodd;fill:#EA001B;}
	.st3{fill-rule:evenodd;clip-rule:evenodd;fill:#FF5F01;}
</style>
<title></title>
<desc></desc>
<g id="Page-1">
	<g id="Social_icons" transform="translate(-422.000000, -954.000000)">
		<g id="Mastercard" transform="translate(422.000000, 954.000000)">
			<circle id="Oval" class="st0" cx="30" cy="30" r="30"/>
			<g id="g3110" transform="translate(12.000000, 19.000000)">
				<path id="path2997" class="st1" d="M36,11.1c0,6.2-5,11.1-11.1,11.1s-11.1-5-11.1-11.1S18.7,0,24.9,0S36,5,36,11.1L36,11.1z"/>
				<path id="path2995" class="st2" d="M22.3,11.1c0,6.2-5,11.1-11.1,11.1S0,17.3,0,11.1S5,0,11.1,0S22.3,5,22.3,11.1L22.3,11.1z"/>
				<path id="path2999" class="st3" d="M18,2.4c-2.6,2-4.3,5.2-4.3,8.8s1.7,6.7,4.3,8.8c2.6-2,4.3-5.2,4.3-8.8S20.6,4.4,18,2.4
					L18,2.4z"/>
			</g>
		</g>
	</g>
</g>
</svg>
