<?xml version="1.0" encoding="utf-8"?>
<!-- Generator: Adobe Illustrator 23.0.4, SVG Export Plug-In . SVG Version: 6.00 Build 0)  -->
<svg version="1.1" id="Layer_1" xmlns="http://www.w3.org/2000/svg" xmlns:xlink="http://www.w3.org/1999/xlink" x="0px" y="0px"
	 viewBox="0 0 1366 424" style="enable-background:new 0 0 1366 424;" xml:space="preserve">
<g>
	<path d="M307,309.7h-76l-69.9-105.4L88.4,309.7H17.9l101.8-144.1L19,18.1h77.1l67.2,98.1l70.5-98.1h69.4l-98.5,139.1L307,309.7z"/>
	<path d="M625.2,56.2c25.9,28.6,38.5,64.5,38.5,107.7c0,43.2-13.2,79.1-39.1,107.7c-25.9,28.6-61.7,43.2-107.4,43.2
		c-43.5,0-76-12.9-96.9-39.3V405h-69.9V18.1h60l6.1,44.3C438,30.4,477.1,13,518.9,13C564,13,599.3,27.6,625.2,56.2z M591.6,163.9
		c0-56.1-36.3-92-86.4-92c-24.2,0-44.6,8.4-61.7,25.8c-16.5,16.8-24.8,38.7-24.8,66.2c0,26.9,8.3,48.8,24.8,66.2
		c16.5,17.4,36.9,25.8,61.7,25.8C555.8,255.8,591.6,219.9,591.6,163.9z"/>
	<path d="M950,18.1h64.4v291.6h-63.9l-5-49.9c-20.4,36.5-55.6,55-104.6,55c-42.4,0-76.5-14-101.8-41.5
		c-24.8-27.5-37.4-63.4-37.4-107.1c0-44.3,13.2-81.3,39.6-109.9C767.7,27.6,802.4,13,845.9,13c47.9,0,81.5,17.4,100.7,51.6L950,18.1
		z M920.8,230.6c17.1-16.8,25.3-38.7,25.3-66.2c0-28-8.3-50.5-24.8-67.3c-16.5-16.8-36.9-25.2-61.1-25.2
		c-50.1,0-85.9,34.8-85.9,92.5c0,56.1,35.8,91.4,85.9,91.4C883.9,255.8,904.3,247.4,920.8,230.6z"/>
	<path d="M1284.1,18.1h68.3L1203.7,405h-69.9l35.8-90.8L1051.2,18.1h74.3l44,115.5c14.3,36.5,26.4,70.7,36.9,103.2h1.7l34.1-103.2
		L1284.1,18.1z"/>
</g>
</svg>
