<?xml version="1.0" encoding="utf-8"?>
<!-- Generator: Adobe Illustrator 23.0.4, SVG Export Plug-In . SVG Version: 6.00 Build 0)  -->
<svg version="1.1" id="Layer_1" xmlns="http://www.w3.org/2000/svg" xmlns:xlink="http://www.w3.org/1999/xlink" x="0px" y="0px"
	 viewBox="0 0 512 512" style="enable-background:new 0 0 512 512;" xml:space="preserve">
<style type="text/css">
	.st0{fill-rule:evenodd;clip-rule:evenodd;}
</style>
<g id="C_-_14_x2C__newspaper_x2C__Business_x2C__financial_x2C__market_x2C__news_x2C__paper_x2C__times">
	<g>
		<rect x="192.1" y="363.1" class="st0" width="29.8" height="58.5"/>
		<rect x="260.7" y="304.6" class="st0" width="29.8" height="117"/>
		<rect x="123.5" y="294.8" class="st0" width="29.8" height="126.7"/>
		<path class="st0" d="M45.2,446.1c0,8.2,6.7,14.8,14.9,14.8c0.3,0,0.5,0,0.8,0c0.3,0,0.5,0,0.8,0c0.2,0,0.4-0.1,0.5-0.1
			c0.3,0,0.6-0.1,1-0.1c0.1,0,0.2,0,0.2-0.1c6.6-1.5,11.6-7.4,11.6-14.4v-58.5V109.4H45.2L45.2,446.1L45.2,446.1z"/>
		<polygon class="st0" points="417.5,57.7 417.5,100.2 460.2,100.2 		"/>
		<rect x="329.2" y="314.3" class="st0" width="29.8" height="107.2"/>
		<rect x="397.8" y="255.8" class="st0" width="29.8" height="165.7"/>
		<path class="st0" d="M412.8,109.6c-2.6,0-4.7-2.1-4.7-4.7V51.1H84.3l0.1,336.6c0,0.2,0,0.5-0.1,0.7v57.8c0,0.6,0,1.3-0.1,1.9
			c0,0.1,0,0.2,0,0.3c-0.1,0.6-0.1,1.2-0.2,1.8c0,0.1,0,0.2,0,0.3c-0.2,1.2-0.5,2.5-0.9,3.6c0,0,0,0.1,0,0.1
			c-0.2,0.6-0.4,1.2-0.7,1.8c0,0,0,0,0,0c-0.8,1.8-1.8,3.5-3,5h387.6V109.6H412.8z M197.2,85.4h19.6v19.5h-19.6V85.4z M158,85.4
			h19.6v19.5H158L158,85.4L158,85.4z M118.8,85.4h19.6v19.5h-19.6V85.4z M118.8,193.6H290c2.6,0,4.7,2.1,4.7,4.7s-2.1,4.7-4.7,4.7
			H118.8c-2.6,0-4.7-2.1-4.7-4.7S116.3,193.6,118.8,193.6z M114.2,166.2c0-2.6,2.1-4.7,4.7-4.7H290c2.6,0,4.7,2.1,4.7,4.7
			s-2.1,4.7-4.7,4.7H118.8C116.3,170.9,114.2,168.8,114.2,166.2z M118.8,224.7H290c2.6,0,4.7,2.1,4.7,4.7c0,2.6-2.1,4.7-4.7,4.7
			H118.8c-2.6,0-4.7-2.1-4.7-4.7C114.2,226.8,116.3,224.7,118.8,224.7z M162.7,426.2c0,2.6-2.1,4.7-4.7,4.7h-39.2
			c-2.6,0-4.7-2.1-4.7-4.7V290.1c0-2.6,2.1-4.7,4.7-4.7H158c2.6,0,4.7,2.1,4.7,4.7V426.2z M231.3,426.2c0,2.6-2.1,4.7-4.7,4.7h-39.2
			c-2.6,0-4.7-2.1-4.7-4.7v-67.9c0-2.6,2.1-4.7,4.7-4.7h39.2c2.6,0,4.7,2.1,4.7,4.7V426.2z M299.9,426.2c0,2.6-2.1,4.7-4.7,4.7H256
			c-2.6,0-4.7-2.1-4.7-4.7V299.9c0-2.6,2.1-4.7,4.7-4.7h39.2c2.6,0,4.7,2.1,4.7,4.7V426.2z M368.4,426.2c0,2.6-2.1,4.7-4.7,4.7
			h-39.2c-2.6,0-4.7-2.1-4.7-4.7V309.6c0-2.6,2.1-4.7,4.7-4.7h39.2c2.6,0,4.7,2.1,4.7,4.7V426.2z M383.3,138.8H118.8
			c-2.6,0-4.7-2.1-4.7-4.7c0-2.6,2.1-4.7,4.7-4.7h264.5c2.6,0,4.7,2.1,4.7,4.7S385.9,138.8,383.3,138.8z M437,426.2
			c0,2.6-2.1,4.7-4.7,4.7h-39.2c-2.6,0-4.7-2.1-4.7-4.7V251.1c0-2.6,2.1-4.7,4.7-4.7h39.2c2.6,0,4.7,2.1,4.7,4.7V426.2z"/>
	</g>
</g>
</svg>
