<?xml version="1.0" encoding="utf-8"?>
<!-- Generator: Adobe Illustrator 23.0.4, SVG Export Plug-In . SVG Version: 6.00 Build 0)  -->
<svg version="1.1" id="Layer_1" xmlns="http://www.w3.org/2000/svg" xmlns:xlink="http://www.w3.org/1999/xlink" x="0px" y="0px"
	 viewBox="0 0 512 512" style="enable-background:new 0 0 512 512;" xml:space="preserve">
<g id="C_-_46_x2C__Analysis_x2C__analytic_x2C__analytics_x2C__chart_x2C__data_x2C__graph">
	<g>
		<polygon points="176.6,260.7 45.2,260.7 45.2,322.8 145.3,322.8 		"/>
		<polygon points="417.5,424.7 413.2,428.9 413.2,428.9 408.4,433.7 438.7,463.9 464.9,437.8 434.6,407.6 		"/>
		<polygon points="45.2,404.3 45.2,459.2 100.4,404.3 		"/>
		<polygon points="51.8,465.8 255.3,465.8 255.3,404.3 113.6,404.3 		"/>
		<path d="M235,281.8c0.6-1.2,1.2-2.3,1.8-3.5c0.1-0.1,0.1-0.2,0.2-0.3c1.3-2.3,2.7-4.6,4.1-6.9c0.1-0.1,0.1-0.2,0.2-0.3
			c0.7-1.1,1.5-2.1,2.2-3.2c0.1-0.1,0.2-0.3,0.3-0.4c0.8-1.1,1.6-2.1,2.4-3.1c0,0,0.1-0.1,0.1-0.1c0.8-1,1.6-2,2.4-3
			c0.1-0.1,0.1-0.2,0.2-0.2h-53.6l34.2,34c0.1-0.3,0.2-0.6,0.3-1c0-0.1,0.1-0.1,0.1-0.2c0.4-1.3,0.9-2.5,1.4-3.8
			c0-0.1,0-0.1,0.1-0.2c1-2.5,2.1-5,3.3-7.4C234.9,282,235,281.9,235,281.8z"/>
		<path d="M224.8,318.5c0.4-4.2,1-8.4,1.9-12.5c0-0.1,0-0.1,0-0.2c0.1-0.2,0.1-0.5,0.1-0.7l-41.4-41.2l-29.6,58.9h68.6
			C224.5,321.4,224.6,320,224.8,318.5C224.8,318.5,224.8,318.5,224.8,318.5z"/>
		<path d="M258.3,251.2c0.4-0.3,0.8-0.7,1.2-1c0.2-0.2,0.4-0.4,0.6-0.6c0.5-0.4,1-0.8,1.5-1.2c0.1-0.1,0.2-0.2,0.4-0.3
			c0.6-0.5,1.1-0.9,1.7-1.4c0,0,0.1,0,0.1-0.1c18.2-14.3,40.5-22.1,64.1-22.1c14.7,0,29,3.1,42.1,8.9l22.2-44.2H45.2v62.1
			L258.3,251.2C258.2,251.3,258.2,251.3,258.3,251.2z"/>
		<polygon points="460.2,117.7 45.2,117.7 45.2,179.8 397.8,179.8 		"/>
		<path d="M119.9,394.3h129.2c-0.1-0.1-0.1-0.2-0.2-0.2c-0.8-0.9-1.6-1.9-2.4-2.9c-0.1-0.1-0.2-0.2-0.3-0.3c-0.8-1-1.6-2-2.3-3
			c-0.1-0.2-0.3-0.4-0.4-0.5c-0.7-1-1.5-2.1-2.2-3.1c-0.1-0.1-0.2-0.3-0.3-0.4c-0.7-1.1-1.4-2.1-2-3.2c0-0.1-0.1-0.1-0.1-0.2
			c-0.7-1.1-1.3-2.2-1.9-3.3c-0.1-0.2-0.2-0.3-0.3-0.5c-0.6-1.1-1.2-2.2-1.8-3.4c-0.1-0.1-0.1-0.3-0.2-0.4c-1.2-2.4-2.2-4.7-3.2-7.2
			c-0.1-0.2-0.1-0.3-0.2-0.5c-0.5-1.2-0.9-2.4-1.3-3.6c-0.1-0.1-0.1-0.3-0.1-0.4c-0.9-2.5-1.6-5.1-2.3-7.7c0-0.1-0.1-0.2-0.1-0.3
			c-0.3-1.3-0.6-2.6-0.9-3.9c0-0.1-0.1-0.2-0.1-0.4c-0.6-2.7-1-5.4-1.4-8.2c0,0,0,0,0-0.1c-0.2-1.4-0.3-2.8-0.4-4.1
			c0-0.1,0-0.1,0-0.2c-0.1-1.4-0.2-2.8-0.3-4.2h-73.4L119.9,394.3z"/>
		<polygon points="140.6,332.2 45.2,332.2 45.2,394.3 109.4,394.3 		"/>
		<rect x="45.2" y="46.2" width="421.7" height="62.1"/>
		<path d="M378.3,237.6c6.1,3.4,11.9,7.5,17.3,12.2c0,0,0,0,0.1,0.1c0.6,0.5,1.2,1,1.7,1.5h69.4v-62.1h-64.3L378.3,237.6z"/>
		<polygon points="466.8,179.8 466.8,124.3 411,179.8 		"/>
		<path d="M327.8,269.6c-15.5,0-30.1,6-41.1,16.9c-11,10.9-17,25.4-17,40.9s6,30,17,40.9c11,10.9,25.6,16.9,41.1,16.9
			c15.5,0,30.1-6,41.1-16.9c11-10.9,17-25.4,17-40.9c0-15.4-6-30-17-40.9C357.9,275.6,343.3,269.6,327.8,269.6z"/>
		<path d="M396.3,391.5c1.9-2,3.7-4,5.4-6.2c0,0,0,0,0,0c13.1-16.4,20.1-36.6,20.1-57.9c0-25-9.8-48.5-27.5-66.2
			c-0.7-0.6-1.3-1.3-2-1.9c-17.5-16.4-40.4-25.5-64.5-25.5c-24,0-46.9,9-64.4,25.4c-0.1,0.1-0.2,0.2-0.3,0.3l-0.1,0
			c-0.6,0.5-1.1,1.1-1.7,1.7c0,0,0,0,0,0c-12.2,12.1-20.6,26.9-24.7,43.1c0,0.2-0.1,0.4-0.1,0.5c-1.8,7.3-2.7,14.9-2.7,22.6
			c0,0,0,0,0,0c0,23.4,8.6,45.5,24.3,62.7c0.1,0.1,0.2,0.2,0.3,0.3c1,1,1.9,2.1,2.9,3.1c0.6,0.6,1.2,1.2,1.8,1.8
			c0.2,0.1,0.3,0.3,0.4,0.4c17.5,16.3,40.2,25.3,64.3,25.3c21.4,0,41.6-7,58.1-20c0,0,0.1-0.1,0.1-0.1c1.4-1.1,2.8-2.3,4.2-3.5
			c0,0,0.1-0.1,0.1-0.1c0.6-0.5,1.1-1,1.7-1.5c0.1-0.1,0.1-0.1,0.2-0.2c0,0,0,0,0,0c0,0,0,0,0,0c0,0,0,0,0,0l0.1-0.1
			c0.6-0.6,1.2-1.2,1.9-1.8c0,0,0,0,0,0c0.6-0.6,1.3-1.3,1.9-1.9C396.2,391.6,396.3,391.6,396.3,391.5z M375.5,375
			c-12.8,12.7-29.7,19.7-47.7,19.7s-35-7-47.7-19.7c-12.8-12.7-19.8-29.6-19.8-47.5c0-18,7-34.8,19.8-47.5
			c12.7-12.7,29.7-19.7,47.7-19.7s35,7,47.7,19.7c12.8,12.7,19.8,29.6,19.8,47.5S388.3,362.3,375.5,375z"/>
		<path d="M411.8,417.1l8-7.9l-14.1-14c-0.7,0.8-1.4,1.6-2.2,2.4c-0.1,0.1-0.2,0.2-0.3,0.3c0,0-0.1,0.1-0.1,0.1c0,0,0,0,0,0
			l-0.1,0.1c-0.1,0.1-0.2,0.2-0.3,0.3c0,0,0,0,0,0c-0.5,0.6-1.1,1.1-1.7,1.7c0,0-0.1,0.1-0.1,0.1c0,0,0,0,0,0c0,0,0,0,0,0
			c-0.5,0.5-1.1,1.1-1.7,1.6c0,0,0,0,0,0c0,0,0,0,0,0c0,0,0,0,0,0c0,0,0,0,0,0c0,0,0,0,0,0c0,0,0,0,0,0c0,0,0,0,0,0h0c0,0,0,0,0,0v0
			c-0.1,0.1-0.1,0.1-0.2,0.2c0,0,0,0,0,0c0,0,0,0,0,0c0,0,0,0,0,0l-0.2,0.2c0,0,0,0,0,0c0,0,0,0,0,0c-0.4,0.4-0.9,0.8-1.3,1.2
			c-0.1,0.1-0.3,0.3-0.4,0.4c0,0,0,0,0,0c-0.2,0.2-0.4,0.3-0.6,0.5c-0.2,0.1-0.3,0.3-0.5,0.4l14.1,14L411.8,417.1z"/>
	</g>
</g>
</svg>
