<?xml version="1.0" encoding="utf-8"?>
<!-- Generator: Adobe Illustrator 23.0.4, SVG Export Plug-In . SVG Version: 6.00 Build 0)  -->
<svg version="1.1" id="Layer_1" xmlns="http://www.w3.org/2000/svg" xmlns:xlink="http://www.w3.org/1999/xlink" x="0px" y="0px"
	 viewBox="0 0 512 512" style="enable-background:new 0 0 512 512;" xml:space="preserve">
<g>
	<g>
		<g>
			<path d="M149.9,98.2c-17.8,0-35.6,0-53.4,0c-10.7,0-21.4,0-32,0c-9.6,0-19,0.1-28.1,3.7c-21.8,8.6-36,30.1-35.1,53.6
				c0.4,9.6,15.4,9.7,15,0c-0.7-18,10.2-35,27.7-40.5c7.1-2.2,14.4-1.9,21.7-1.9c21.7,0,43.3,0,65,0c6.4,0,12.8,0,19.2,0
				C159.5,113.2,159.5,98.2,149.9,98.2L149.9,98.2z"/>
		</g>
	</g>
	<g>
		<g>
			<path d="M410.7,51.1c9.7,0,9.7-15,0-15C401.1,36.1,401.1,51.1,410.7,51.1L410.7,51.1z"/>
			<path d="M157.4,200.5c0-36.3,0-72.5,0-108.8c0-9.9-1.9-21.8,3.8-30.4c5-7.5,12.9-10.2,21.4-10.2c15.3,0,30.6,0,45.9,0
				c49.7,0,99.5,0,149.2,0c11,0,22-0.2,33.1,0c7.4,0.1,14.3,3.1,19.2,8.8c4.8,5.5,6.1,12.1,6.1,19.2c0,9,0,18.1,0,27.1
				c0,19,0,38.1,0,57.1c0,8.2,0,16.3,0,24.5c0,12.9,0.9,26.3-11.6,34.3c-6.3,4-13,4-20.2,4c-9.7,0-9.7,15,0,15
				c8.3,0,16.1-0.3,23.8-3.9c10.1-4.7,17.8-13.9,21.2-24.5c3.6-11.3,1.8-25.2,1.8-36.9c0-16.9,0-33.9,0-50.8c0-11.5,0-23,0-34.5
				s0.7-22.8-4.9-33.3c-7.1-13.3-21.2-21-36.1-21.1c-4.6,0-9.3,0-13.9,0c-49.3,0-98.6,0-148,0c-19.9,0-39.7,0-59.6,0
				c-3.7,0-7.6-0.2-11.3,0.1c-20,1.7-34.7,18.1-35,38c-0.6,39.8,0,79.6,0,119.4c0,2.3,0,4.6,0,6.9
				C142.4,210.1,157.4,210.1,157.4,200.5L157.4,200.5z"/>
		</g>
	</g>
	<g>
		<g>
			<path d="M149.9,93.9c33.1,0,66.1,0,99.2,0c52.7,0,105.4,0,158.1,0c12.1,0,24.2,0,36.4,0c-2.5-2.5-5-5-7.5-7.5
				c0,13.2,0,26.5,0,39.7c2.5-2.5,5-5,7.5-7.5c-33.1,0-66.1,0-99.2,0c-52.7,0-105.4,0-158.1,0c-12.1,0-24.2,0-36.4,0
				c2.5,2.5,5,5,7.5,7.5c0-13.2,0-26.5,0-39.7c0-9.7-15-9.7-15,0c0,13.2,0,26.5,0,39.7c0,4.1,3.4,7.5,7.5,7.5c33.1,0,66.1,0,99.2,0
				c52.7,0,105.4,0,158.1,0c12.1,0,24.2,0,36.4,0c4.1,0,7.5-3.4,7.5-7.5c0-13.2,0-26.5,0-39.7c0-4.1-3.4-7.5-7.5-7.5
				c-33.1,0-66.1,0-99.2,0c-52.7,0-105.4,0-158.1,0c-12.1,0-24.2,0-36.4,0C140.2,78.9,140.2,93.9,149.9,93.9z"/>
		</g>
	</g>
	<g>
		<g>
			<g>
				<path d="M443.5,173.5c19.9,0,39.9,0,59.8,0c-2.5-2.5-5-5-7.5-7.5c0,25.8,0,51.5,0,77.3c0,40.9,0,81.7,0,122.6
					c0,9.4,0,18.9,0,28.3c2.5-2.5,5-5,7.5-7.5c-28.7,0-57.3,0-86,0c-4.2,0-8.3,0-12.5,0c-9.7,0-9.7,15,0,15c28.7,0,57.3,0,86,0
					c4.2,0,8.3,0,12.5,0c4.1,0,7.5-3.4,7.5-7.5c0-25.8,0-51.5,0-77.3c0-40.9,0-81.7,0-122.6c0-9.4,0-18.9,0-28.3
					c0-4.1-3.4-7.5-7.5-7.5c-19.9,0-39.9,0-59.8,0C433.9,158.5,433.8,173.5,443.5,173.5L443.5,173.5z"/>
			</g>
		</g>
	</g>
	<g>
		<g>
			<path d="M469,325.2c9.7,0,9.7-15,0-15S459.3,325.2,469,325.2L469,325.2z"/>
			<path d="M427.5,227.7c9.7,13.9,24.5,22,41.5,22.3c-2.5-2.5-5-5-7.5-7.5c0,25.1,0,50.1,0,75.2c2.5-2.5,5-5,7.5-7.5
				c-27.4,0.4-49.2,22.3-49.7,49.7c2.5-2.5,5-5,7.5-7.5c-7.3,0-14.6,0-22,0c-9.7,0-9.7,15,0,15c7.3,0,14.6,0,22,0
				c4.1,0,7.4-3.4,7.5-7.5c0.3-19.2,15.5-34.4,34.7-34.7c4.1-0.1,7.5-3.4,7.5-7.5c0-25.1,0-50.1,0-75.2c0-4.1-3.4-7.4-7.5-7.5
				c-11.4-0.2-21.9-5.5-28.5-14.9C435,212.3,422,219.7,427.5,227.7L427.5,227.7z"/>
		</g>
	</g>
	<g>
		<g>
			<path d="M427,306.3c9.7,0,9.7-15,0-15S417.3,306.3,427,306.3L427,306.3z"/>
			<path d="M404.9,306.3c6.9,0,13.9,0.1,20.8,0c12.4-0.1,23.4-9,23.4-22.1s-10.9-21.9-23.4-22.1c-6.9-0.1-13.9,0-20.8,0
				c-9.7,0-9.7,15,0,15c5.6,0,11.1,0,16.7,0c5.2,0,12.5-0.3,12.5,7.1s-7.3,7.1-12.5,7.1c-5.6,0-11.1,0-16.7,0
				C395.2,291.3,395.2,306.3,404.9,306.3L404.9,306.3z"/>
		</g>
	</g>
	<g>
		<g>
			<path d="M469,216c9.7,0,9.7-15,0-15S459.3,216,469,216L469,216z"/>
		</g>
	</g>
	<g>
		<g>
			<path d="M469,375.6c9.7,0,9.7-15,0-15S459.3,375.6,469,375.6L469,375.6z"/>
		</g>
	</g>
	<g>
		<g>
			<path d="M397.4,240.7c0,24.7,0,49.3,0,74c0,34.4,0,68.9,0,103.3c0,12,0,23.5-9.1,32.9c-8.3,8.6-18.7,10-29.8,10
				c-26.3,0-52.6,0-78.9,0c-39.3,0-78.6,0-117.9,0c-30.3,0-60.6,0-90.9,0c-4.9,0-9.8,0.1-14.7,0c-22.3-0.3-39.7-18.2-39.9-40.3
				c-0.2-22,0-44,0-65.9c0-39,0-78,0-117c0-26.8,0-53.6,0-80.4c0-1.4,0-2.7,0-4.1c-5,0-10,0-15,0c0.4,26.1,19.2,49.7,45.3,54
				c6.3,1,12.6,0.9,19,0.9c25.1,0,50.1,0,75.2,0c35.9,0,71.9,0,107.8,0c30.1,0,60.2,0,90.3,0c7.6,0,15.3,0,22.9,0
				c12.8,0,24.5,4.7,31.3,16.2C395.9,229.2,397.3,234.8,397.4,240.7c0.2,9.6,15.2,9.7,15,0c-0.4-26.2-21.4-47.3-47.7-47.7
				c-4.2-0.1-8.4,0-12.7,0c-26.4,0-52.9,0-79.3,0c-36.1,0-72.1,0-108.2,0c-29,0-58,0-87,0c-6.6,0-13.3,0-19.9,0
				c-16.1,0-30.5-8.2-37.6-22.8c-2.6-5.3-3.7-11.2-3.8-17.1c-0.1-9.6-15-9.7-15,0c0,20.1,0,40.2,0,60.3c0,39.5,0,78.9,0,118.4
				c0,28.1,0,56.3,0,84.4c0,15.7,3.8,30.4,14.7,42.2c11.5,12.4,27.2,17.5,43.6,17.5c25,0,49.9,0,74.9,0c40,0,79.9,0,119.9,0
				c31.4,0,62.9,0,94.3,0c5.3,0,10.7,0.1,16,0c26.4-0.4,47.4-21.6,47.7-47.9c0.3-27,0-54.1,0-81.1c0-33.4,0-66.9,0-100.3
				c0-2,0-3.9,0-5.9C412.4,231,397.4,231,397.4,240.7z"/>
			<path d="M404.9,248.2c9.7,0,9.7-15,0-15C395.2,233.2,395.2,248.2,404.9,248.2L404.9,248.2z"/>
		</g>
	</g>
	<g>
		<g>
			<path d="M52.8,200.5c0,30.2,0,60.5,0,90.7c0,48.1,0,96.2,0,144.4c0,11,0,21.9,0,32.9c2.5-2.5,5-5,7.5-7.5c-8.4,0-16.2-0.8-23.6-5
				c-7.8-4.4-14.1-11.3-17.6-19.6c-2.7-6.6-3-13.4-3-20.4c0-18,0-36,0-53.9c0-55.5,0-111.1,0-166.6c0-14.1,0-28.2,0-42.2
				c-5,0-10,0-15,0c0.2,16,7,31.6,19.4,41.9c11.5,9.6,24.9,13,39.7,13c9.7,0,9.7-15,0-15c-10.7,0-20.5-1.8-29.1-8.6
				c-9.6-7.6-14.9-19.1-15-31.3c-0.1-9.6-15-9.7-15,0c0,39,0,78,0,117c0,48.5,0,97,0,145.5c0,10,1,19.6,5.3,28.9
				c4.9,10.6,13.5,19.6,23.8,25c9.5,5,19.5,6.4,30,6.4c4.1,0,7.5-3.4,7.5-7.5c0-30.2,0-60.5,0-90.7c0-48.1,0-96.2,0-144.4
				c0-11,0-21.9,0-32.9C67.8,190.8,52.8,190.8,52.8,200.5z"/>
			<path d="M60.3,208c9.7,0,9.7-15,0-15C50.7,193,50.6,208,60.3,208L60.3,208z"/>
		</g>
	</g>
	<g>
		<g>
			<path d="M351.6,332.3c-0.3,13.5-11.3,24.2-24.9,23.5c-12.3-0.6-22.2-11.3-22.2-23.5s9.8-22.9,22.2-23.5
				C340.3,308.1,351.3,318.8,351.6,332.3c0.2,9.6,15.2,9.7,15,0c-0.4-16.5-10.4-30.9-26-36.5c-15-5.4-32.4-0.2-42.3,12.1
				c-9.9,12.3-11.5,29.7-3.7,43.4c8.1,14.2,24.4,21.4,40.3,18.8c18.4-3,31.3-19.7,31.7-37.9C366.8,322.7,351.8,322.7,351.6,332.3z"
				/>
			<path d="M359.1,339.8c9.7,0,9.7-15,0-15C349.5,324.8,349.4,339.8,359.1,339.8L359.1,339.8z"/>
		</g>
	</g>
</g>
</svg>
