<?xml version="1.0" encoding="utf-8"?>
<!-- Generator: Adobe Illustrator 23.0.4, SVG Export Plug-In . SVG Version: 6.00 Build 0)  -->
<svg version="1.1" id="Layer_1" xmlns="http://www.w3.org/2000/svg" xmlns:xlink="http://www.w3.org/1999/xlink" x="0px" y="0px"
	 viewBox="0 0 48 48" style="enable-background:new 0 0 48 48;" xml:space="preserve">
<style type="text/css">
	.st0{fill-rule:evenodd;clip-rule:evenodd;}
</style>
<path class="st0" d="M43,40H5c-2.2,0-4-1.8-4-4V12c0-2.2,1.8-4,4-4h38c2.2,0,4,1.8,4,4v24C47,38.2,45.2,40,43,40z M3,21h42v-4H3V21z
	 M45,12c0-1.1-0.9-2-2-2H5c-1.1,0-2,0.9-2,2v3h42V12z M45,23H3v13c0,1.1,0.9,2,2,2h38c1.1,0,2-0.9,2-2V23z M26,29h-4
	c-0.6,0-1-0.4-1-1c0-0.6,0.4-1,1-1h4c0.6,0,1,0.4,1,1C27,28.6,26.6,29,26,29z M17,29H8c-0.6,0-1-0.4-1-1c0-0.6,0.4-1,1-1h9
	c0.6,0,1,0.4,1,1C18,28.6,17.6,29,17,29z M8,32h6c0.6,0,1,0.4,1,1c0,0.6-0.4,1-1,1H8c-0.6,0-1-0.4-1-1C7,32.4,7.4,32,8,32z"/>
</svg>
