<?xml version="1.0" encoding="utf-8"?>
<!-- Generator: Adobe Illustrator 23.0.4, SVG Export Plug-In . SVG Version: 6.00 Build 0)  -->
<svg version="1.1" id="Layer_1" xmlns="http://www.w3.org/2000/svg" xmlns:xlink="http://www.w3.org/1999/xlink" x="0px" y="0px"
	 viewBox="0 0 62 47" style="enable-background:new 0 0 62 47;" xml:space="preserve">
<style type="text/css">
	.st0{clip-path:url(#SVGID_2_);}
	.st1{fill:#BC1D1D;}
</style>
<g>
	<defs>
		<rect id="SVGID_1_" x="4" y="4" width="54" height="38.5"/>
	</defs>
	<clipPath id="SVGID_2_">
		<use xlink:href="#SVGID_1_"  style="overflow:visible;"/>
	</clipPath>
	<g id="Symbol_2_10" class="st0">
		<path id="Path_15" class="st1" d="M53.7,4H19c-1.4-0.1-2.8,0.6-3.5,1.9L4,23.2l11.5,17.4c0.8,1.2,2.1,1.9,3.5,1.9h34.7
			c2.3,0,4.2-1.8,4.3-4.2c0,0,0-0.1,0-0.1V8.3C58,5.9,56.2,4,53.7,4C53.8,4,53.8,4,53.7,4z M44.6,31l-2.9,2.9l-7.8-7.8l-7.8,7.8
			L23.2,31l7.8-7.8l-7.8-7.8l2.9-2.9l7.8,7.8l7.8-7.8l2.9,2.9l-7.8,7.8L44.6,31z"/>
	</g>
</g>
</svg>
