<?xml version="1.0" encoding="utf-8"?>
<!-- Generator: Adobe Illustrator 23.0.4, SVG Export Plug-In . SVG Version: 6.00 Build 0)  -->
<svg version="1.1" id="Layer_1" xmlns="http://www.w3.org/2000/svg" xmlns:xlink="http://www.w3.org/1999/xlink" x="0px" y="0px"
	 viewBox="0 0 512 512" style="enable-background:new 0 0 512 512;" xml:space="preserve">
<style type="text/css">
	.st0{enable-background:new    ;}
	.st1{fill-rule:evenodd;clip-rule:evenodd;fill:#005BAC;}
	.st2{fill-rule:evenodd;clip-rule:evenodd;fill:#F6AC1D;}
</style>
<g id="形状_1_3_" class="st0">
	<g id="形状_1">
		<g>
			<path class="st1" d="M211.3,184.4l-23.5,144.2h37.5l23.5-144.2L211.3,184.4L211.3,184.4z M156.3,184.4l-35.8,99.2l-4.2-21.4l0,0
				l-0.9-4.8c-4.3-9.3-14.4-27.1-33.3-42.2c-5.6-4.5-11.2-8.3-16.7-11.6l32.5,124.9h39.1l59.7-144.2L156.3,184.4L156.3,184.4z
				 M302.8,224.5c0-16.3,36.6-14.2,52.6-5.4l5.4-31c0,0-16.5-6.3-33.8-6.3c-18.6,0-62.9,8.1-62.9,47.7c0,37.3,51.9,37.7,51.9,57.3
				s-46.6,16.1-61.9,3.7l-5.6,32.4c0,0,16.8,8.1,42.4,8.1c25.6,0,64.3-13.3,64.3-49.4C355.2,244.3,302.8,240.8,302.8,224.5z
				 M456,184.4h-30.2c-13.9,0-17.3,10.7-17.3,10.7l-56,133.5h39.1l7.8-21.4h47.7l4.4,21.4h34.5L456,184.4z M410.3,277.6l19.7-54
				l11.1,54H410.3z"/>
		</g>
	</g>
</g>
<g id="形状_1_2_" class="st0">
	<g id="形状_1_1_">
		<g>
			<path class="st2" d="M104.1,198c0,0-1.6-13-18.1-13H25.7l-0.7,2.4c0,0,29,5.9,56.8,28C108.3,236.6,117,263,117,263L104.1,198z"/>
		</g>
	</g>
</g>
</svg>
