<?xml version="1.0" encoding="utf-8"?>
<!-- Generator: Adobe Illustrator 23.0.4, SVG Export Plug-In . SVG Version: 6.00 Build 0)  -->
<svg version="1.1" id="Layer_1" xmlns="http://www.w3.org/2000/svg" xmlns:xlink="http://www.w3.org/1999/xlink" x="0px" y="0px"
	 viewBox="0 0 299 309" style="enable-background:new 0 0 299 309;" xml:space="preserve">
<style type="text/css">
	.st0{fill-rule:evenodd;clip-rule:evenodd;}
</style>
<g>
	<g id="Checkout_order_order_checkout_stripe_terminal_credit_card" transform="translate(121.996 -1)">
		<g id="Group_253" transform="translate(22.23 168.484)">
			<g id="Group_252">
				<g id="Group_251">
					<path id="Path_1176" d="M99.5,74.9H23.2C17,74.9,12,69.8,12,63.6c0,0,0-0.1,0-0.1V17.8c0-2.1,1.7-3.8,3.8-3.8s3.8,1.7,3.8,3.8
						v45.7c-0.1,2,1.4,3.7,3.4,3.8c0,0,0.1,0,0.1,0h76.4c2.1,0,3.8-1.7,3.8-3.8V17.8c0-2.1,1.7-3.8,3.8-3.8c2.1,0,3.8,1.7,3.8,3.8
						v45.7C111,69.8,105.9,74.9,99.5,74.9z"/>
				</g>
			</g>
		</g>
		<g id="Group_256" transform="translate(75.52 168.484)">
			<g id="Group_255">
				<g id="Group_254">
					<path id="Path_1177" d="M38.6,74.9H15.8c-2.1,0-3.8-1.7-3.8-3.8V17.8c0-2.1,1.7-3.8,3.8-3.8s3.8,1.7,3.8,3.8v49.5h15.2V17.8
						c0-2.1,1.7-3.8,3.8-3.8s3.8,1.7,3.8,3.8v53.3C42.4,73.2,40.7,74.9,38.6,74.9z"/>
				</g>
			</g>
		</g>
		<g id="Group_259" transform="translate(90.746 61.903)">
			<g id="Group_258">
				<g id="Group_257">
					<path id="Path_1178" d="M27.2,36.8h-7.6c-4.2,0-7.6-3.4-7.6-7.6v-7.6c0-4.2,3.4-7.6,7.6-7.6h7.6c4.2,0,7.6,3.4,7.6,7.6v7.6
						C34.8,33.4,31.4,36.8,27.2,36.8z M27.2,29.2L27.2,29.2z M19.6,21.6v7.6h7.6v-7.6L19.6,21.6z"/>
				</g>
			</g>
		</g>
		<g id="Group_262" transform="translate(60.294 61.903)">
			<g id="Group_261">
				<g id="Group_260">
					<path id="Path_1179" d="M27.2,36.8h-7.6c-4.2,0-7.6-3.4-7.6-7.6v-7.6c0-4.2,3.4-7.6,7.6-7.6h7.6c4.2,0,7.6,3.4,7.6,7.6v7.6
						C34.8,33.4,31.4,36.8,27.2,36.8z M27.2,29.2L27.2,29.2z M19.6,21.6v7.6h7.6v-7.6L19.6,21.6z"/>
				</g>
			</g>
		</g>
		<g id="Group_265" transform="translate(29.843 122.806)">
			<g id="Group_264">
				<g id="Group_263">
					<path id="Path_1180" d="M27.2,36.8h-7.6c-4.2,0-7.6-3.4-7.6-7.6v-7.6c0-4.2,3.4-7.6,7.6-7.6h7.6c4.2,0,7.6,3.4,7.6,7.6v7.6
						C34.8,33.4,31.4,36.8,27.2,36.8z M27.2,29.2L27.2,29.2z M19.6,21.6v7.6h7.6v-7.6L19.6,21.6z"/>
				</g>
			</g>
		</g>
		<g id="Group_268" transform="translate(60.294 122.806)">
			<g id="Group_267">
				<g id="Group_266">
					<path id="Path_1181" d="M27.2,36.8h-7.6c-4.2,0-7.6-3.4-7.6-7.6v-7.6c0-4.2,3.4-7.6,7.6-7.6h7.6c4.2,0,7.6,3.4,7.6,7.6v7.6
						C34.8,33.4,31.4,36.8,27.2,36.8z M27.2,29.2L27.2,29.2z M19.6,21.6v7.6h7.6v-7.6L19.6,21.6z"/>
				</g>
			</g>
		</g>
		<g id="Group_271" transform="translate(90.746 122.806)">
			<g id="Group_270">
				<g id="Group_269">
					<path id="Path_1182" d="M27.2,36.8h-7.6c-4.2,0-7.6-3.4-7.6-7.6v-7.6c0-4.2,3.4-7.6,7.6-7.6h7.6c4.2,0,7.6,3.4,7.6,7.6v7.6
						C34.8,33.4,31.4,36.8,27.2,36.8z M27.2,29.2L27.2,29.2z M19.6,21.6v7.6h7.6v-7.6L19.6,21.6z"/>
				</g>
			</g>
		</g>
		<g id="Group_274" transform="translate(90.746 92.355)">
			<g id="Group_273">
				<g id="Group_272">
					<path id="Path_1183" d="M27.2,36.8h-7.6c-4.2,0-7.6-3.4-7.6-7.6v-7.6c0-4.2,3.4-7.6,7.6-7.6h7.6c4.2,0,7.6,3.4,7.6,7.6v7.6
						C34.8,33.4,31.4,36.8,27.2,36.8z M27.2,29.2L27.2,29.2z M19.6,21.6v7.6h7.6v-7.6L19.6,21.6z"/>
				</g>
			</g>
		</g>
		<g id="Group_277" transform="translate(60.294 92.355)">
			<g id="Group_276">
				<g id="Group_275">
					<path id="Path_1184" d="M27.2,36.8h-7.6c-4.2,0-7.6-3.4-7.6-7.6v-7.6c0-4.2,3.4-7.6,7.6-7.6h7.6c4.2,0,7.6,3.4,7.6,7.6v7.6
						C34.8,33.4,31.4,36.8,27.2,36.8z M27.2,29.2L27.2,29.2z M19.6,21.6v7.6h7.6v-7.6L19.6,21.6z"/>
				</g>
			</g>
		</g>
		<g id="Group_280" transform="translate(29.843 92.355)">
			<g id="Group_279">
				<g id="Group_278">
					<path id="Path_1185" d="M27.2,36.8h-7.6c-4.2,0-7.6-3.4-7.6-7.6v-7.6c0-4.2,3.4-7.6,7.6-7.6h7.6c4.2,0,7.6,3.4,7.6,7.6v7.6
						C34.8,33.4,31.4,36.8,27.2,36.8z M27.2,29.2L27.2,29.2z M19.6,21.6v7.6h7.6v-7.6L19.6,21.6z"/>
				</g>
			</g>
		</g>
		<g id="Group_283" transform="translate(29.843 61.903)">
			<g id="Group_282">
				<g id="Group_281">
					<path id="Path_1186" d="M27.2,36.8h-7.6c-4.2,0-7.6-3.4-7.6-7.6v-7.6c0-4.2,3.4-7.6,7.6-7.6h7.6c4.2,0,7.6,3.4,7.6,7.6v7.6
						C34.8,33.4,31.4,36.8,27.2,36.8z M27.2,29.2L27.2,29.2z M19.6,21.6v7.6h7.6v-7.6L19.6,21.6z"/>
				</g>
			</g>
		</g>
		<g id="Group_286" transform="translate(22.23 16.226)">
			<g id="Group_285">
				<g id="Group_284">
					<path id="Path_1187" d="M103.4,52.1H19.6c-4.2,0-7.6-3.4-7.6-7.6V21.6c0-4.2,3.4-7.6,7.6-7.6h83.7c4.2,0,7.6,3.4,7.6,7.6v22.8
						C111,48.7,107.6,52.1,103.4,52.1z M19.6,21.6v22.8h83.7V21.6H19.6z"/>
				</g>
			</g>
		</g>
		<g id="Group_289" transform="translate(7.004 1)">
			<g id="Group_288">
				<g id="Group_287">
					<path id="Path_1188" d="M122.4,173.9H31c-10.5,0-19-8.5-19-19V33c0-10.5,8.5-19,19-19h91.4c10.5,0,19,8.5,19,19v121.8
						C141.4,165.3,132.9,173.9,122.4,173.9z M31,21.6c-6.3,0-11.4,5.1-11.4,11.4v121.8c0,6.3,5.1,11.4,11.4,11.4h91.4
						c6.3,0,11.4-5.1,11.4-11.4V33c0-6.3-5.1-11.4-11.4-11.4H31z"/>
				</g>
			</g>
		</g>
		<g id="Group_292" transform="translate(144.036 16.226)">
			<g id="Group_291">
				<g id="Group_290">
					<path id="Path_1189" d="M15.8,143.4c-2.1,0-3.8-1.7-3.8-3.8l0,0V17.8c0-2.1,1.7-3.8,3.8-3.8s3.8,1.7,3.8,3.8v121.8
						C19.6,141.7,17.9,143.4,15.8,143.4z"/>
				</g>
			</g>
		</g>
	</g>
	<path id="Path_1190" class="st0" d="M120.7,111H22.4c-5.7,0-10.3-4.6-10.4-10.3c0,0,0,0,0,0V38.6c0-5.7,4.6-10.3,10.3-10.3l0,0
		h98.3c5.7,0,10.3,4.6,10.4,10.3c0,0,0,0,0,0v62.1C131,106.4,126.4,111,120.7,111L120.7,111z M17.2,61.9h108.7V51.5H17.2V61.9z
		 M125.8,38.6c0-2.9-2.3-5.2-5.2-5.2H22.4c-2.9,0-5.2,2.3-5.2,5.2v7.8h108.6V38.6z M125.8,67.1H17.2v33.6c0,2.9,2.3,5.2,5.2,5.2
		h98.3c2.9,0,5.2-2.3,5.2-5.2L125.8,67.1z M76.7,82.6H66.3c-1.4,0-2.6-1.2-2.6-2.6s1.2-2.6,2.6-2.6l0,0h10.3c1.4,0,2.6,1.2,2.6,2.6
		S78.1,82.6,76.7,82.6z M53.4,82.6H30.1c-1.4,0-2.6-1.2-2.6-2.6s1.2-2.6,2.6-2.6h23.3c1.4,0,2.6,1.2,2.6,2.6S54.8,82.6,53.4,82.6z
		 M30.1,90.3h15.5c1.4,0,2.6,1.2,2.6,2.6c0,1.4-1.2,2.6-2.6,2.6H30.1c-1.4,0-2.6-1.2-2.6-2.6C27.5,91.5,28.7,90.3,30.1,90.3
		C30.1,90.3,30.1,90.3,30.1,90.3z"/>
	<g id="Forma_1_3_" transform="translate(76 94.803)">
		<g id="Group_14" transform="translate(-4 17)">
			<path id="Path_20" class="st0" d="M12,24.9h24.1l-8.8-8.8l2.2-2.2L42,26.5L29.5,39l-2.2-2.2l8.8-8.8H12V24.9z"/>
		</g>
	</g>
	<g id="Forma_1_3_2" transform="translate(159.5 279.303) rotate(-90)">
		<g id="Group_14-2" transform="translate(-4 17)">
			<path id="Path_20-2" class="st0" d="M-14,22.9h24.1l-8.8-8.8L3.5,12L16,24.5L3.5,37l-2.2-2.2l8.8-8.8H-14V22.9z"/>
		</g>
	</g>
</g>
</svg>
