<?xml version="1.0" encoding="utf-8"?>
<!-- Generator: Adobe Illustrator 23.0.4, SVG Export Plug-In . SVG Version: 6.00 Build 0)  -->
<svg version="1.1" id="Layer_1" xmlns="http://www.w3.org/2000/svg" xmlns:xlink="http://www.w3.org/1999/xlink" x="0px" y="0px"
	 viewBox="0 0 526 107" style="enable-background:new 0 0 526 107;" xml:space="preserve">
<style type="text/css">
	.st0{fill:#EC2C2E;}
</style>
<g>
	<path class="st0" d="M57.9,0h52c3.2,0.2,6.4,1.2,8.8,3.2c2.3,1.9,3.4,5,3.1,7.9c-0.4,4.4-2.6,8.3-5,11.9
		c-4.2,6-10.2,10.9-17.1,13.4c-1.8,0.8-3.9,1-5.7,1.8c2.8,0.5,5.8,1.2,7.9,3.4c2,2,2.6,5,2.3,7.8c-0.7,4.4-2.8,8.5-5.3,12.1
		c-4.3,6.4-10.7,11.2-18,13.7c-10.6,3.6-21.9,3.1-32.8,3.1c-10.8,0-21.6,0-32.4,0C29.7,52.2,43.8,26.1,57.9,0 M74.4,15.4
		c-2.7,5.2-5.6,10.3-8.3,15.5c3.3,0,6.6,0,9.9,0c2.2,0,4.5-0.1,6.6-0.7c4.1-0.9,7.7-3.8,9.8-7.4c1-1.6,2.3-3.9,0.8-5.5
		c-1.6-1.4-3.8-1.6-5.8-1.7C83.1,15.3,78.7,15.4,74.4,15.4 M48.7,62.9c5.2,0,10.5,0.1,15.7-0.1c2.8-0.2,5.7-0.8,8.1-2.3
		c3.3-2,5.7-5.4,6.9-9c0.3-1.1,0.3-2.4-0.4-3.3c-1.3-1.4-3.4-1.7-5.3-1.8c-5.3-0.2-10.7-0.1-16-0.1C54.7,51.8,51.7,57.4,48.7,62.9z"
		/>
	<path class="st0" d="M333.6,0h30.6c1.4,17,2.7,34.1,4.1,51.1c2.2-3.6,4.1-7.4,6.1-11.1c7.2-13.3,14.4-26.6,21.6-40h22.7
		c-14.1,26.1-28.2,52.2-42.3,78.3c-10.1,0-20.2,0-30.3,0c-0.8-8.9-1.7-17.8-2.6-26.6c-0.8-7.8-1.5-15.7-2.4-23.5
		c-1.8,3.1-3.4,6.3-5.2,9.5c-7.3,13.6-14.6,27.2-22,40.7c-7.6,0-15.1,0-22.7,0C305.5,52.2,319.6,26.1,333.6,0z"/>
	<path class="st0" d="M494.2,9.2c8.7-1.6,17.3-3.1,26-4.7c-2.7,5.1-5.5,10.2-8.2,15.3c4.6,0,9.3,0,13.9,0v0
		c-2.8,5.1-5.6,10.2-8.2,15.3c-4.6,0.1-9.3,0.1-13.9,0c-3.6,6.5-7.1,13.2-10.7,19.7c-0.8,1.8-2,3.6-1.9,5.7c0.1,1.4,1.5,2.1,2.7,2.3
		c3.8,0.5,7.6-0.6,11.3-1.5c-3.8,5.5-7.7,11-11.5,16.6c-5.4,1.1-10.9,1.8-16.4,1.9c-3.7,0-7.5-0.1-10.9-1.5c-2.2-0.7-4-2.6-4.2-5
		c-0.3-3,0.9-5.9,2.2-8.6c5.3-9.9,10.6-19.7,15.9-29.6c-3,0-6.1,0.1-9.1,0c2.7-5.1,5.6-10.1,8.2-15.3c3.1-0.1,6.1-0.1,9.2,0
		C490.4,16.3,492.2,12.7,494.2,9.2z"/>
	<path class="st0" d="M156.5,18.5c6.3-0.3,12.7-0.6,18.7,1.3c2.8,0.9,5.7,2.5,6.7,5.4c1.1,3-0.1,6.1-1.4,8.8
		c-7.9,14.8-15.9,29.5-23.8,44.2c-7.8,0.1-15.7,0.1-23.5,0c4.7-8.7,9.5-17.4,14.1-26.1c-6.3,2.3-13.2,3.1-19.1,6.4
		c-1.4,1-2.9,1.9-3.9,3.3c-0.7,1-1.3,2.2-1,3.4c0.3,1,1.3,1.5,2.3,1.7c3.3,0.6,6.6,0,9.7-0.8c-3.5,4.3-6.9,8.6-10.4,12.8
		c-4.3,0.3-8.6,0.9-12.9,0.5c-3.4-0.1-6.8-0.8-9.7-2.6c-1.9-1.2-3.3-3.1-3.7-5.3c-0.6-3,0.4-6,1.7-8.7c1.8-3.7,4.3-7.1,7.5-9.6
		c4.5-3.8,10.1-6.1,15.8-7.8c8.3-2.4,17.1-3.2,25.4-5.7c2.9-1,6.3-2.5,7.2-5.8c0.5-1.8-1.4-3-2.9-3.2c-5.5-0.7-11,0.4-16.4,1.4
		c-5,1.1-9.9,2.4-14.8,3.9c0.1-0.3,0.3-0.6,0.5-0.9c3-4.5,5.9-8.9,8.9-13.4C139.7,20.4,148.1,19,156.5,18.5z"/>
	<path class="st0" d="M231.6,19c4.3-0.8,8.7-0.9,13-0.4c3,0.5,6.2,1.1,8.6,3.2c2.1,1.8,3,4.7,2.6,7.4c-0.5,4.9-3.1,9.1-5.4,13.3
		c-6.4,11.9-12.8,23.8-19.3,35.7c-7.8,0-15.6,0-23.4,0c5.5-10.3,11.1-20.6,16.6-30.9c1.2-2.2,2.3-4.8,1.9-7.4
		c-0.4-1.9-2.2-3-3.9-3.2c-4.6-0.7-9.3,1.1-13.1,3.7c-6,4.2-10.3,10.3-13.9,16.6c-3.9,7-7.7,14.2-11.5,21.2c-7.8,0-15.6,0-23.5,0
		c10.6-19.5,21.1-39.1,31.7-58.6c7.4,0.1,14.8,0,22.1,0c-1.5,2.8-3.1,5.7-4.6,8.5c0.7-0.1,1.2-0.5,1.7-0.9
		C217.6,23.5,224.3,20.3,231.6,19z"/>
	<path class="st0" d="M286.2,19.3c5.5-1.2,11.1-1.1,16.7-0.8c4.6,0.3,9.3,0.7,13.7,2.1c-2.4,5.8-4.8,11.7-7.2,17.6
		c-5.1-1.7-10.4-3.4-15.8-3c-4.5,0.2-8.9,1.7-12.6,4.2c-4.6,3.2-7.9,7.8-9.9,13c-0.7,2.1-1.3,4.5-0.4,6.6c1,2.3,3.5,3.2,5.8,3.6
		c7.1,1,14-1.3,20.8-2.8c-4.1,5.9-8.1,11.9-12.2,17.8c-7.6,1.5-15.3,2.4-23,2c-4.5-0.4-9.1-1.3-12.9-4c-2.8-2-4.6-5.3-4.8-8.7
		c-0.5-5.2,1.3-10.3,3.4-15c4.6-9.7,11.4-18.5,20.2-24.7C273.5,23.4,279.7,20.6,286.2,19.3z"/>
	<path class="st0" d="M414.6,28.4c8.5-6,18.8-9.5,29.2-10c5.2-0.2,10.6,0,15.6,1.7c3.2,1.1,6.3,3.1,8,6.1c1.8,3.2,1.7,7.1,0.9,10.6
		c-1.4,5.7-4.6,10.6-7.3,15.7c-14.3,0-28.6,0-43,0c-1,2.1-2,4.6-1.4,7c0.6,2.3,2.8,3.7,4.9,4.4c3.9,1.4,8.2,1,12.3,0.7
		c6-0.7,12-2.1,17.8-3.5c-3.7,5.5-7.5,11-11.3,16.5c-9.6,1.7-19.4,2.5-29.2,2c-5.2-0.4-10.7-1.3-14.9-4.5c-2.6-1.9-4.3-5-4.7-8.2
		c-0.5-4.9,1.1-9.6,3-14C398.9,43.2,405.8,34.5,414.6,28.4 M434.6,32.6c-4.5,1.8-8.2,5.2-10.9,9.2c6.7,0.1,13.5,0,20.2,0
		c1-2.2,2.2-4.5,1.9-7c-0.2-1.6-1.7-2.8-3.2-3.1C440,31.2,437.1,31.6,434.6,32.6z"/>
	<path class="st0" d="M12.4,84.4c159.1,0,318.2,0,477.3,0c-1.3,2.4-2.6,4.8-3.9,7.2c-159.1,0-318.2,0-477.3,0
		C9.8,89.1,11.1,86.7,12.4,84.4z"/>
	<path class="st0" d="M4,99.9c14.4-0.1,28.9,0,43.3,0c144.7,0,289.3,0,434,0c-1.3,2.4-2.6,4.8-3.9,7.1H0.1l0,0
		C1.4,104.6,2.7,102.3,4,99.9z"/>
</g>
</svg>
