<?xml version="1.0" encoding="utf-8"?>
<!-- Generator: Adobe Illustrator 23.0.6, SVG Export Plug-In . SVG Version: 6.00 Build 0)  -->
<svg version="1.1" id="Layer_1" xmlns="http://www.w3.org/2000/svg" xmlns:xlink="http://www.w3.org/1999/xlink" x="0px" y="0px"
	 viewBox="0 0 512 512" style="enable-background:new 0 0 512 512;" xml:space="preserve">
<style type="text/css">
	.st0{fill:#023769;}
</style>
<g>
	<g>
		<path class="st0" d="M157.1,289.2L157.1,289.2c-2.7,0-5.2-1.1-7.1-2.9l-15.8-15.8c-3.9-3.9-3.9-10.2,0-14.1
			c3.9-3.9,10.2-3.9,14.1,0l8.7,8.7l34.3-34.3c3.9-3.9,10.2-3.9,14.1,0c3.9,3.9,3.9,10.2,0,14.1l-41.4,41.4
			C162.3,288.1,159.8,289.2,157.1,289.2z"/>
	</g>
	<g>
		<g>
			<path class="st0" d="M374,234.9c-2.6,0-5.3-1-7.2-3.1l-37-38.8c-3.8-4-3.7-10.3,0.3-14.1c4-3.8,10.3-3.7,14.1,0.3l37,38.8
				c3.8,4,3.7,10.3-0.3,14.1C378.9,234,376.5,234.9,374,234.9z"/>
		</g>
		<g>
			<path class="st0" d="M336.1,234c-2.6,0-5.3-1-7.2-3.1c-3.8-4-3.7-10.3,0.3-14.1l38.8-37c4-3.8,10.3-3.7,14.1,0.3
				c3.8,4,3.7,10.3-0.3,14.1l-38.8,37C341.1,233.1,338.6,234,336.1,234z"/>
		</g>
	</g>
	<g>
		<path class="st0" d="M246.4,381c-2.9,0-5.8-1.3-7.7-3.6l-37.1-44.5H56.9c-5.5,0-10-4.5-10-10V186.1c0-5.5,4.5-10,10-10h226.1
			c5.5,0,10,4.5,10,10v136.8c0,5.5-4.5,10-10,10h-26.5V371c0,4.2-2.6,8-6.6,9.4C248.7,380.9,247.6,381,246.4,381z M66.9,312.9h139.5
			c3,0,5.8,1.3,7.7,3.6l22.4,26.9v-20.5c0-5.5,4.5-10,10-10h26.5V196.1H66.9V312.9z"/>
	</g>
	<g>
		<path class="st0" d="M418.7,335.9c-2.9,0-5.8-1.3-7.7-3.6l-37.1-44.5h-91c-5.5,0-10-4.5-10-10v-81.6h-43.8c-5.5,0-10-4.5-10-10
			V141c0-5.5,4.5-10,10-10h226c5.5,0,10,4.5,10,10v136.8c0,5.5-4.5,10-10,10h-26.5v38.1c0,4.2-2.6,8-6.6,9.4
			C420.9,335.7,419.8,335.9,418.7,335.9z M292.9,267.7h85.7c3,0,5.8,1.3,7.7,3.6l22.4,26.9v-20.5c0-5.5,4.5-10,10-10h26.5V151h-206
			v25.1h43.8c5.5,0,10,4.5,10,10L292.9,267.7L292.9,267.7z"/>
	</g>
</g>
</svg>
