<?xml version="1.0" encoding="utf-8"?>
<!-- Generator: Adobe Illustrator 23.0.6, SVG Export Plug-In . SVG Version: 6.00 Build 0)  -->
<svg version="1.1" id="_x3C_Layer_x3E_" xmlns="http://www.w3.org/2000/svg" xmlns:xlink="http://www.w3.org/1999/xlink" x="0px"
	 y="0px" viewBox="0 0 32 32" style="enable-background:new 0 0 32 32;" xml:space="preserve">
<style type="text/css">
	.st0{fill:#023769;}
</style>
<g id="clipboard">
	<g>
		<g>
			<g>
				<path class="st0" d="M26.5,3h-6v1h6C26.8,4,27,4.2,27,4.5v25c0,0.3-0.2,0.5-0.5,0.5h-21C5.2,30,5,29.8,5,29.5v-25
					C5,4.2,5.2,4,5.5,4h6V3h-6C4.7,3,4,3.7,4,4.5v25C4,30.3,4.7,31,5.5,31h21c0.8,0,1.5-0.7,1.5-1.5v-25C28,3.7,27.3,3,26.5,3z"/>
			</g>
		</g>
		<g>
			<path class="st0" d="M25.5,22c-0.3,0-0.5-0.2-0.5-0.5V6h-2.5C22.2,6,22,5.8,22,5.5S22.2,5,22.5,5h3C25.8,5,26,5.2,26,5.5v16
				C26,21.8,25.8,22,25.5,22z"/>
		</g>
		<g>
			<path class="st0" d="M20.5,29h-14C6.2,29,6,28.8,6,28.5v-23C6,5.2,6.2,5,6.5,5h3C9.8,5,10,5.2,10,5.5S9.8,6,9.5,6H7v22h13.5
				c0.3,0,0.5,0.2,0.5,0.5S20.8,29,20.5,29z"/>
		</g>
		<g>
			<path class="st0" d="M20.5,29c-0.1,0-0.1,0-0.2,0c-0.2-0.1-0.3-0.3-0.3-0.5v-5c0-0.3,0.2-0.5,0.5-0.5h5c0.2,0,0.4,0.1,0.5,0.3
				c0.1,0.2,0,0.4-0.1,0.5l-5,5C20.8,28.9,20.6,29,20.5,29z M21,24v3.3l3.3-3.3H21z"/>
		</g>
		<g id="customer_survey_questionnaire_2_">
			<g>
				<g>
					<path class="st0" d="M9.7,18C9.6,18,9.6,18,9.7,18c-0.2,0-0.3-0.1-0.4-0.2l-1.2-1.3C7.9,16.3,8,16,8.2,15.8s0.5-0.2,0.7,0.1
						l0.8,0.9l1.6-1.7c0.2-0.2,0.5-0.2,0.7,0s0.2,0.5,0,0.7l-2,2.1C9.9,18,9.8,18,9.7,18z"/>
				</g>
			</g>
			<g>
				<g>
					<path class="st0" d="M9.7,13C9.6,13,9.6,13,9.7,13c-0.2,0-0.3-0.1-0.4-0.2l-1.2-1.3C7.9,11.3,8,11,8.2,10.8s0.5-0.2,0.7,0.1
						l0.8,0.9l1.6-1.7c0.2-0.2,0.5-0.2,0.7,0s0.2,0.5,0,0.7l-2,2.1C9.9,13,9.8,13,9.7,13z"/>
				</g>
			</g>
			<g>
				<g>
					<path class="st0" d="M17.5,23h-4c-0.3,0-0.5-0.2-0.5-0.5s0.2-0.5,0.5-0.5h4c0.3,0,0.5,0.2,0.5,0.5S17.8,23,17.5,23z"/>
				</g>
			</g>
			<g>
				<g>
					<path class="st0" d="M22.5,21h-9c-0.3,0-0.5-0.2-0.5-0.5s0.2-0.5,0.5-0.5h9c0.3,0,0.5,0.2,0.5,0.5S22.8,21,22.5,21z"/>
				</g>
			</g>
			<g>
				<g>
					<path class="st0" d="M22.5,16h-3c-0.3,0-0.5-0.2-0.5-0.5s0.2-0.5,0.5-0.5h3c0.3,0,0.5,0.2,0.5,0.5S22.8,16,22.5,16z"/>
				</g>
			</g>
			<g>
				<g>
					<path class="st0" d="M20.5,18h-7c-0.3,0-0.5-0.2-0.5-0.5s0.2-0.5,0.5-0.5h7c0.3,0,0.5,0.2,0.5,0.5S20.8,18,20.5,18z"/>
				</g>
			</g>
			<g>
				<g>
					<path class="st0" d="M17.5,16h-4c-0.3,0-0.5-0.2-0.5-0.5s0.2-0.5,0.5-0.5h4c0.3,0,0.5,0.2,0.5,0.5S17.8,16,17.5,16z"/>
				</g>
			</g>
			<g>
				<g>
					<path class="st0" d="M22.5,11h-9c-0.3,0-0.5-0.2-0.5-0.5s0.2-0.5,0.5-0.5h9c0.3,0,0.5,0.2,0.5,0.5S22.8,11,22.5,11z"/>
				</g>
			</g>
			<g>
				<g>
					<path class="st0" d="M18.5,13h-5c-0.3,0-0.5-0.2-0.5-0.5s0.2-0.5,0.5-0.5h5c0.3,0,0.5,0.2,0.5,0.5S18.8,13,18.5,13z"/>
				</g>
			</g>
			<g>
				<g>
					<path class="st0" d="M10.5,23h-2C8.2,23,8,22.8,8,22.5v-2C8,20.2,8.2,20,8.5,20h2c0.3,0,0.5,0.2,0.5,0.5v2
						C11,22.8,10.8,23,10.5,23z M9,22h1v-1H9V22z"/>
				</g>
			</g>
		</g>
	</g>
	<g>
		<path class="st0" d="M20.5,7h-9C11.2,7,11,6.8,11,6.5v-3C11,2.7,11.7,2,12.5,2C12.8,2,13,2.2,13,2.5S12.8,3,12.5,3S12,3.2,12,3.5
			V6h8V3.5C20,3.2,19.8,3,19.5,3S19,2.8,19,2.5S19.2,2,19.5,2C20.3,2,21,2.7,21,3.5v3C21,6.8,20.8,7,20.5,7z"/>
	</g>
	<g>
		<path class="st0" d="M17.5,3C17.2,3,17,2.8,17,2.5C17,2.2,16.8,2,16.5,2h-1c-0.1,0-0.2,0-0.3,0.1C15.1,2.2,15,2.3,15,2.5
			C15,2.8,14.8,3,14.5,3S14,2.8,14,2.5c0-0.5,0.2-0.9,0.6-1.2C14.9,1.1,15.2,1,15.5,1h1C17.3,1,18,1.7,18,2.5C18,2.8,17.8,3,17.5,3z
			"/>
	</g>
</g>
</svg>
