<?xml version="1.0" encoding="utf-8"?>
<!-- Generator: Adobe Illustrator 23.0.4, SVG Export Plug-In . SVG Version: 6.00 Build 0)  -->
<svg version="1.1" id="Layer_1" xmlns="http://www.w3.org/2000/svg" xmlns:xlink="http://www.w3.org/1999/xlink" x="0px" y="0px"
	 viewBox="0 0 496 496" style="enable-background:new 0 0 496 496;" xml:space="preserve">
<style type="text/css">
	.st0{fill:#154F7D;}
</style>
<path class="st0" d="M496,208h-18l-26.8,14.1c-3-1.7-6.2-3.1-9.5-3.9l-33.7-8.4v-3.8c14.9-10.4,24-27.6,24-45.9v-14
	c0-31.1-24.4-57.1-54.3-58c-1.5,0-3,0-4.5,0.1l8.7-20.5l-42.4-42.4l-25,16.3c-9.5-5.3-19.5-9.5-29.9-12.4L278.5,0h-61l-6.2,29.1
	c-10.4,2.9-20.5,7.1-29.9,12.4l-25-16.3l-42.3,42.3l8.6,20.5c-0.3,0-0.6-0.1-1-0.1C106.4,87.6,92,93.2,81,103.8
	c-11,10.6-17,24.9-17,40.2v16c0,18.3,9.1,35.5,24,45.9v3.8l-22,5.5L26.2,192H0v165.8L78.7,384H94l1.9-6.7l24.1,14.5
	c0.4,13.1,10.9,23.7,24,24.1c0.5,13.1,10.9,23.5,24,24c0.5,13.1,10.9,23.5,24,24c0.5,13.4,11.4,24.1,24.9,24.1c5,0,9.9-1.6,14-4.3
	l7.1,6.3c4.4,3.9,10.2,6.1,16.1,6.1h1.5c13.3,0,24.1-10.8,24.3-24c13.2-0.2,23.8-10.8,24-24c13.2-0.2,23.8-10.8,24-24
	c13.3-0.3,24-11.2,24-24.5c0-0.8,0-1.6-0.1-2.4L496,324.9V208z M416,146v14c0,14.2-7.7,27.5-20,34.6l-4,2.3l0,25.3l40,10l-88,46.3
	V257c0-10.8-4.3-20.6-11.5-27.9l27.5-6.9v-25.3l-4-2.3c-12.3-7.1-20-20.4-20-34.6v-16c0-10.9,4.3-21.1,12.2-28.7
	c7.8-7.6,18.2-11.7,29.1-11.3C398.6,104.7,416,123.5,416,146z M260.1,272.2l-36.2-11.6c-16.5-5.3-34.4-6.1-51.3-2.3l-4.6,1V257
	c0-11,7.5-20.6,18.2-23.3l45.8-11.4v-25.3l-4-2.3c-12.3-7.1-20-20.4-20-34.6v-16c0-10.9,4.3-21.1,12.2-28.7
	c7.8-7.6,18.3-11.7,29.1-11.3c21.4,0.6,38.8,19.5,38.8,42v14c0,14.2-7.7,27.5-20,34.6l-4,2.3l0,25.3l45.8,11.4
	C320.5,236.4,328,246,328,257v30l-2,1h-4.9l-49.2-14.1C268.1,272.8,264.1,272.4,260.1,272.2z M169.8,119.7
	C184.8,90.6,215.1,72,248,72c32.6,0,62.7,18.4,77.9,47.1c-3.8,7.6-5.9,16.1-5.9,24.9v16c0,18.3,9.1,35.5,24,45.9v3.8l-32,8l-32-8
	v-3.8c14.9-10.4,24-27.6,24-45.9v-14c0-31.1-24.4-57.1-54.3-58c-15.3-0.4-29.8,5.1-40.7,15.8c-11,10.6-17,24.9-17,40.2v16
	c0,18.3,9.1,35.5,24,45.9v3.8l-32,8l-32-8v-3.8c14.9-10.4,24-27.6,24-45.9v-14C176,136.6,173.7,127.7,169.8,119.7z M133,71.4
	l25.6-25.6l22.5,14.6l4.3-2.6c10.8-6.6,22.4-11.4,34.6-14.4l4.9-1.2l5.6-26.2h35l5.6,26.2l4.9,1.2c12.2,2.9,23.9,7.8,34.6,14.4
	l4.3,2.6l22.5-14.6L363,71.3l-9.1,21.2c-6.2,2.7-11.9,6.4-16.9,11.2c-0.3,0.3-0.6,0.7-0.9,1C317.2,74.8,283.9,56,248,56
	c-36.2,0-69.6,19-88.4,49.3c-5-5.3-11-9.5-17.6-12.5L133,71.4z M104,222.2v-25.3l-4-2.3c-12.3-7.1-20-20.4-20-34.6v-16
	c0-10.9,4.3-21.1,12.2-28.7c7.8-7.6,18.2-11.7,29.1-11.3c21.4,0.6,38.8,19.5,38.8,42v14c0,14.2-7.7,27.5-20,34.6l-4,2.3l0,25.3
	l27.4,6.9c-7.1,7.3-11.5,17.1-11.5,27.9v5.9l-25,5.5l0.6-2.3l0.3-14.8l-42.2-24.6L104,222.2z M16,208h5.8l57.5,33.6l-29,116.1
	L16,346.2V208z M81.3,368l-15.7-5.2L93.8,250l18.2,10.6v2.3L82,368H81.3z M136,391c0-2.4,1-4.7,2.6-6.3l14.1-14.1
	c1.7-1.7,4-2.6,6.3-2.6c4.9,0,9,4,9,9c0,2.4-1,4.7-2.6,6.3l-14.1,14.1c-1.7,1.7-4,2.6-6.3,2.6C140,400,136,396,136,391z M160,415
	c0-2.4,1-4.7,2.6-6.3l14.1-14.1c1.7-1.7,4-2.6,6.3-2.6c4.9,0,9,4,9,9c0,2.4-1,4.7-2.6,6.3l-14.1,14.1c-1.7,1.7-4,2.6-6.3,2.6
	C164,424,160,420,160,415z M184,439c0-2.4,1-4.7,2.6-6.3l14.1-14.1c1.7-1.7,4-2.6,6.3-2.6c4.9,0,9,4,9,9c0,2.4-1,4.7-2.6,6.3
	l-14.1,14.1c-1.7,1.7-4,2.6-6.3,2.6C188,448,184,444,184,439z M217,472c-4.9,0-9-4-9-9c0-2.4,1-4.7,2.6-6.3l14.1-14.1
	c1.7-1.7,4-2.6,6.3-2.6c4.9,0,9,4,9,9c0,2.4-1,4.7-2.6,6.3l-14.1,14.1C221.6,471,219.3,472,217,472z M255.7,480h-1.5
	c-2,0-4-0.7-5.5-2.1l-6-5.3l6-6c2.1-2.1,3.8-4.7,5-7.4l7.3,6.1c1.9,1.6,3,3.9,3,6.4C264,476.3,260.3,480,255.7,480z M327.4,408H326
	c-2,0-4-0.7-5.5-2l-43.4-36.2l-10.2,12.3l42.1,35.1c1.9,1.6,3,3.9,3,6.4c0,4.6-3.7,8.3-8.3,8.3h-1.7c-1.9,0-3.8-0.7-5.3-1.9
	l-43.5-36.2l-10.2,12.3l42.1,35.1c1.9,1.6,3,3.9,3,6.4c0,4.6-3.7,8.3-8.3,8.3c-3.1,0-6.1-1.1-8.4-3l-17.9-14.9
	c-3.9-8-12-13.6-21.5-14c-0.5-13.1-10.9-23.5-24-24c-0.5-13.1-10.9-23.5-24-24c-0.5-13.4-11.4-24.1-24.9-24.1
	c-6.6,0-13,2.7-17.7,7.3l-14.1,14.1c-0.8,0.8-1.5,1.8-2.2,2.7l-24.6-14.7L122,286l54-12c14.2-3.2,29.1-2.5,42.9,1.9l11.8,3.8l-40,20
	c-9.1,4.6-14.8,13.8-14.8,24v1.6c0,14.8,12,26.8,26.8,26.8c4.9,0,9.6-1.3,13.8-3.8l29.8-17.9c6-3.6,14-2.8,19.2,1.8l67.6,60.8
	c1.8,1.6,2.8,4,2.8,6.4C336,404.1,332.1,408,327.4,408z M480,315.1l-134.8,67.4c-0.4-0.5-0.9-0.9-1.4-1.3l-67.6-60.8
	c-5.9-5.3-13.6-8.3-21.6-8.3c-5.8,0-11.6,1.6-16.6,4.6l-29.8,17.9c-1.7,1-3.6,1.5-5.5,1.5c-6,0-10.8-4.8-10.8-10.8v-1.6
	c0-4.1,2.3-7.8,6-9.7l44.6-22.3c7.6-3.8,16.7-4.7,24.9-2.3l50.3,14.4L330,304l150-79V315.1z"/>
</svg>
