<?xml version="1.0" encoding="utf-8"?>
<!-- Generator: Adobe Illustrator 23.0.4, SVG Export Plug-In . SVG Version: 6.00 Build 0)  -->
<svg version="1.1" id="Capa_1" xmlns="http://www.w3.org/2000/svg" xmlns:xlink="http://www.w3.org/1999/xlink" x="0px" y="0px"
	 viewBox="0 0 59.9 59.9" style="enable-background:new 0 0 59.9 59.9;" xml:space="preserve">
<style type="text/css">
	.st0{fill:#154F7D;}
</style>
<g>
	<path class="st0" d="M59.6,23.4c-0.2-0.3-0.6-0.4-1-0.4H56V8.7c0-1-0.8-1.8-1.8-1.8H23.6l-2.5-4.1C20.8,2.3,20.2,2,19.6,2H5.8
		C4.8,2,4,2.7,4,3.7V23H1.3c-0.4,0-0.7,0.2-1,0.4C0.1,23.7,0,24,0,24.4l4.9,32.5C5,57.5,5.6,58,6.2,58h47.5c0.6,0,1.2-0.5,1.3-1.1
		l4.9-32.5C60,24.1,59.8,23.7,59.6,23.4z M6,4h13.4l2.5,4.1C22.2,8.6,22.8,9,23.4,9H54v14h-1v-4h-1v-3h-1v-3H9v3H8v3H7v4H6V4z M9,21
		h42v2H9V21z M10,18h40v1H10V18z M49,16H11v-1h38V16z M53.1,56H6.8L2.1,25H4h3h46h3h1.8L53.1,56z"/>
	<path class="st0" d="M27,51h21V37H27C27,37,27,51,27,51z M29,39h17v10H29C29,49,29,39,29,39z"/>
	<path class="st0" d="M32,43h4c0.6,0,1-0.4,1-1s-0.4-1-1-1h-4c-0.6,0-1,0.4-1,1S31.4,43,32,43z"/>
	<path class="st0" d="M40,43h1c0.6,0,1-0.4,1-1s-0.4-1-1-1h-1c-0.6,0-1,0.4-1,1S39.4,43,40,43z"/>
	<path class="st0" d="M43,45H32c-0.6,0-1,0.4-1,1s0.4,1,1,1h11c0.6,0,1-0.4,1-1S43.5,45,43,45z"/>
</g>
</svg>
