<?xml version="1.0" encoding="utf-8"?>
<!-- Generator: Adobe Illustrator 23.0.4, SVG Export Plug-In . SVG Version: 6.00 Build 0)  -->
<svg version="1.1" id="Capa_1" xmlns="http://www.w3.org/2000/svg" xmlns:xlink="http://www.w3.org/1999/xlink" x="0px" y="0px"
	 viewBox="0 0 480.2 480.2" style="enable-background:new 0 0 480.2 480.2;" xml:space="preserve">
<style type="text/css">
	.st0{fill:#154F7D;}
</style>
<g>
	<g>
		<path class="st0" d="M372.2,256.2l-51.9-66.1c18.4-18.9,29.6-43.7,31.4-70.1h80.4v8.8c-18.6,3.8-32,20.2-32,39.2
			c0,22.1,17.9,40,40,40s40-17.9,40-40c0-19-13.4-35.4-32-39.2V112c0-4.4-3.6-8-8-8h-88.4c-1.6-22.2-9.7-43.4-23.4-60.8L339.4,32
			h94.2c4.4,12.5,18.1,19,30.6,14.6c12.5-4.4,19-18.1,14.6-30.6S460.7-3,448.2,1.4C441.4,3.8,436,9.2,433.6,16h-97.5
			c-2.1,0-4.2,0.8-5.7,2.3l-12.9,12.9c-44.5-42.8-115.2-41.5-158,3c-18.2,18.9-29.2,43.6-31,69.8H61.3L35.1,45.2
			c11.7-6.2,16.2-20.6,10-32.3S24.6-3.3,12.9,2.8C1.2,9-3.3,23.5,2.8,35.2c3.2,6.1,9,10.6,15.7,12.2l30.2,68
			c1.3,2.9,4.2,4.7,7.3,4.7h72.4c1.8,26,12.8,50.6,30.9,69.4L91.8,257c-43.7-6.5-84.4,23.6-90.9,67.2s23.6,84.4,67.2,90.9
			c1.3,0.2,2.6,0.4,4,0.5V456c0,4.4,3.6,8,8,8h73.5c4.4,12.5,18.1,19,30.6,14.6s19-18.1,14.6-30.6s-18.1-19-30.6-14.6
			c-6.8,2.4-12.2,7.8-14.6,14.6H88.1v-32.4c43.9-4.4,76-43.5,71.6-87.5c-3-29.7-22.3-55.3-50-66.4l61.6-61.6
			c40.1,31.6,96.6,31.8,137,0.6l44.4,56.5c-61.3,8.5-104,65.2-95.5,126.4c8.5,61.3,65.2,104,126.4,95.5
			c61.3-8.5,104-65.2,95.5-126.4C471.6,298.8,426.5,258.2,372.2,256.2z M464.1,168c0,13.3-10.7,24-24,24s-24-10.7-24-24
			s10.7-24,24-24S464.1,154.8,464.1,168z M456.1,16c4.4,0,8,3.6,8,8s-3.6,8-8,8s-8-3.6-8-8S451.7,16,456.1,16z M24.1,32
			c-4.4,0-8-3.6-8-8s3.6-8,8-8s8,3.6,8,8S28.5,32,24.1,32z M176.1,448c4.4,0,8,3.6,8,8s-3.6,8-8,8s-8-3.6-8-8S171.7,448,176.1,448z
			 M112.1,391.4c-19.8,11.5-44.2,11.5-64,0V376c0-17.7,14.3-32,32-32s32,14.3,32,32V391.4z M64.1,312c0-8.8,7.2-16,16-16
			s16,7.2,16,16s-7.2,16-16,16S64.1,320.8,64.1,312z M128.1,293.5c10.3,11.7,16,26.8,16,42.5c0,15.5-5.7,30.6-16,42.2V376
			c0-17.5-9.5-33.6-24.9-42c12.2-12.8,11.7-33-1.1-45.2c-12.8-12.2-33-11.7-45.2,1.1c-11.8,12.4-11.8,31.8,0,44.2
			c-15.3,8.4-24.8,24.5-24.8,42v2.2c-23.4-26.5-20.8-67,5.7-90.3C64.3,264.5,104.7,267,128.1,293.5z M296.1,189.8
			c-33.4,24.2-78.6,24.2-112,0v-19.4c0-14.6,11.8-26.4,26.4-26.4h17.8l-11.6,29c-1.2,3-0.5,6.4,1.8,8.6l16,16
			c3.1,3.1,8.2,3.1,11.3,0l16-16c2.3-2.3,3-5.7,1.8-8.6l-11.6-29h17.8c14.6,0,26.4,11.8,26.4,26.4L296.1,189.8L296.1,189.8z
			 M241.2,59.9c-0.3,0.5-0.5,1-0.7,1.6c-4,12.1-25.9,16.7-40,18.1c2.1-26.8,14.8-39.5,39.6-39.5c22.7,0,35.2,10.7,38.8,33.1
			l-26.7-16C248.4,54.9,243.5,56.1,241.2,59.9z M251.1,75.2l28.6,17.2c-3.2,19.6-27.3,35.7-39.6,35.7c-17.8-3-32.7-15.4-38.9-32.4
			C214.9,94.5,239.6,90.3,251.1,75.2z M246.7,174.1l-6.6,6.6l-6.6-6.6l6.6-16.5L246.7,174.1z M275,128.4
			c12.5-9.8,20.2-24.5,21.1-40.4c0-52.9-30.5-64-56-64s-56,11.1-56,64c0.9,15.9,8.6,30.6,21.1,40.4c-21.2,2.6-37.1,20.6-37.1,42v4.9
			c-35.1-39.8-31.3-100.4,8.5-135.5S277,8.5,312.1,48.3c32,36.3,32,90.7,0,127v-4.9C312.1,149,296.2,131,275,128.4z M424.1,445.8
			c-33.4,24.2-78.6,24.2-112,0v-19.4c0-14.6,11.8-26.4,26.4-26.4h17.8l-11.6,29c-1.2,3-0.5,6.4,1.8,8.6l16,16
			c3.1,3.1,8.2,3.1,11.3,0l16-16c2.3-2.3,3-5.7,1.8-8.6l-11.6-29h17.8c14.6,0,26.4,11.8,26.4,26.4V445.8z M379.1,331.2L379.1,331.2
			l28.6,17.2c-3.2,19.6-27.3,35.7-39.6,35.7c-17.8-3-32.7-15.4-38.9-32.4C342.9,350.5,367.6,346.3,379.1,331.2z M328.5,335.5
			L328.5,335.5c2.1-26.8,14.8-39.5,39.6-39.5c22.7,0,35.2,10.7,38.8,33.1l-26.7-16c-3.8-2.3-8.7-1-11,2.7c-0.3,0.5-0.5,1-0.7,1.6
			C364.5,329.6,342.6,334.2,328.5,335.5z M374.7,430.1l-6.6,6.6l-6.6-6.6l6.6-16.5L374.7,430.1z M440.1,431.3v-4.9
			c0-21.4-15.9-39.4-37.1-42c12.5-9.8,20.2-24.5,21.1-40.4c0-52.9-30.5-64-56-64s-56,11.1-56,64c0.9,15.9,8.6,30.6,21.1,40.4
			c-21.2,2.6-37.1,20.6-37.1,42v4.9c-35-39.8-31.1-100.4,8.7-135.4s100.4-31.1,135.4,8.7c15.4,17.5,23.9,40.1,23.9,63.4
			C464.1,391.3,455.6,413.8,440.1,431.3z"/>
	</g>
</g>
</svg>
