<?xml version="1.0" encoding="utf-8"?>
<!-- Generator: Adobe Illustrator 23.0.4, SVG Export Plug-In . SVG Version: 6.00 Build 0)  -->
<svg version="1.1" id="Layer_1" xmlns="http://www.w3.org/2000/svg" xmlns:xlink="http://www.w3.org/1999/xlink" x="0px" y="0px"
	 viewBox="0 0 2048 2048" style="enable-background:new 0 0 2048 2048;" xml:space="preserve">
<style type="text/css">
	.st0{fill:none;}
	.st1{fill:#FFFFFF;}
</style>
<g id="Layer_x0020_1">
	<rect class="st0" width="2048" height="2048"/>
	<rect x="256" y="256" class="st0" width="1536" height="1536"/>
	<rect x="256" y="256" class="st0" width="1536" height="1536"/>
	<g id="_251990984">
		<path id="_251988848" class="st1" d="M1446.5,1655.9c5.6,5.6,13.5,9.1,22.2,9.1c8.7,0,16.6-3.6,22.3-9.3
			c5.7-5.7,9.3-13.6,9.3-22.3c0-8.7-3.5-16.6-9.1-22.2c-5.7-5.7-13.7-9.2-22.5-9.2c-8.7,0-16.6,3.5-22.2,9.2s-9.2,13.5-9.2,22.2
			C1437.2,1642.2,1440.8,1650.2,1446.5,1655.9L1446.5,1655.9z"/>
		<path id="_251988752" class="st1" d="M1001.7,1655.7c5.7,5.7,13.6,9.3,22.3,9.3c8.7,0,16.6-3.6,22.3-9.3
			c5.7-5.7,9.3-13.6,9.3-22.3c0-8.7-3.5-16.6-9.1-22.2c-5.7-5.7-13.7-9.2-22.5-9.2c-8.8,0-16.8,3.5-22.5,9.2
			c-5.6,5.6-9.1,13.5-9.1,22.2C992.4,1642.1,995.9,1650,1001.7,1655.7L1001.7,1655.7z"/>
		<path id="_251993528" class="st1" d="M557,1655.7c5.7,5.7,13.6,9.3,22.3,9.3c8.7,0,16.6-3.5,22.2-9.1c5.7-5.7,9.2-13.7,9.2-22.5
			c0-8.7-3.5-16.6-9.2-22.2c-5.7-5.7-13.5-9.2-22.2-9.2c-8.8,0-16.8,3.5-22.5,9.2c-5.6,5.6-9.1,13.5-9.1,22.2
			C547.7,1642.1,551.3,1650,557,1655.7L557,1655.7z"/>
		<path id="_251990936" class="st1" d="M1500.3,1453.9v-201.6c0-26.4-10.6-50.2-27.8-67.4c-17.1-17.2-40.9-27.8-67.2-27.8h-317.6
			H960.4H642.7c-26.3,0-50.1,10.6-67.2,27.8c-17.2,17.2-27.8,41.1-27.8,67.4v201.6v22.6l-21.4,7.6c-31.3,11.1-58.1,31.6-76.8,58
			c-18.1,25.6-28.8,57.1-28.8,91.3c0,87.5,71,158.6,158.6,158.6c43.7,0,83.4-17.8,112.1-46.5c28.7-28.7,46.5-68.4,46.5-112.1
			c0-34.1-10.7-65.5-28.9-91.1c-18.8-26.6-45.7-47.1-77-58.2l-21.4-7.6v-22.6v-201.6v-32h32h317.6h32v32v201.6v22.6l-21.4,7.6
			c-31.3,11.1-58.1,31.6-76.8,58c-18.1,25.6-28.8,57.1-28.8,91.3c0,87.5,71,158.6,158.6,158.6c43.8,0,83.4-17.8,112.1-46.5
			c28.7-28.7,46.5-68.4,46.5-112.2c0-34.2-10.7-65.7-28.8-91.3c-18.7-26.5-45.5-46.9-76.8-58l-21.4-7.6v-22.6v-201.6v-32h32h317.6
			h32v32v201.6v22.6l-21.4,7.6c-31.3,11.1-58.1,31.6-77,58.2c-18.2,25.6-28.9,57-28.9,91.1c0,87.5,71.1,158.6,158.6,158.6
			c43.8,0,83.5-17.8,112.2-46.5c28.7-28.7,46.5-68.4,46.5-112.2c0-34.2-10.7-65.7-28.8-91.3c-18.7-26.5-45.5-46.9-76.8-58l-21.4-7.6
			L1500.3,1453.9L1500.3,1453.9z M1024,1729c-26.4,0-50.3-10.7-67.6-28c-17.3-17.3-28-41.2-28-67.6c0-26.3,10.8-50.1,28.1-67.5
			c17.3-17.3,41.2-28,67.5-28s50.1,10.7,67.5,28c17.4,17.3,28.1,41.2,28.1,67.5c0,26.4-10.7,50.3-28,67.6
			C1074.3,1718.3,1050.4,1729,1024,1729L1024,1729z M1468.7,1729c-26.3,0-50.1-10.8-67.5-28.1c-17.3-17.3-28-41.2-28-67.5
			c0-26.4,10.7-50.2,27.9-67.5s41.1-27.9,67.5-27.9c26.3,0,50.1,10.7,67.5,28c17.4,17.3,28.1,41.2,28.1,67.5
			c0,26.4-10.7,50.3-28,67.6C1518.9,1718.3,1495,1729,1468.7,1729L1468.7,1729z M579.3,1729c-26.4,0-50.3-10.7-67.6-28
			c-17.3-17.3-28-41.2-28-67.6c0-26.3,10.8-50.1,28.1-67.5c17.3-17.3,41.2-28,67.5-28c26.4,0,50.2,10.7,67.5,27.9
			c17.3,17.3,27.9,41.1,27.9,67.5c0,26.3-10.7,50.1-28,67.5C629.5,1718.2,605.6,1729,579.3,1729L579.3,1729z"/>
		<path id="_251990888" class="st1" d="M1281,508.1c0,69.7-28.9,132.8-75.7,178.6c-10.8,10.6-22.5,20.2-35.1,28.7
			c67.8,10.6,128.6,42.2,175,87.7c58.1,56.9,94.2,135.3,94.2,221.9v0.2h-0.1l0.6,38.3l0.5,32.5H1408H640h-32v-32v-38.8
			c0-86.6,36.1-165.1,94.3-222.1c46.5-45.5,107.2-77.1,174.9-87.8c-12.5-8.5-24.2-18.1-35-28.6c-46.7-45.7-75.6-108.8-75.6-178.6
			c0-69.7,28.9-132.8,75.7-178.5C888.9,284.1,953,256,1023.8,256c70.8,0,135,28.1,181.5,73.6C1252,375.3,1281,438.4,1281,508.1
			L1281,508.1z"/>
	</g>
</g>
</svg>
