<?xml version="1.0" encoding="utf-8"?>
<!-- Generator: Adobe Illustrator 23.0.4, SVG Export Plug-In . SVG Version: 6.00 Build 0)  -->
<svg version="1.1" id="Layer_1" xmlns="http://www.w3.org/2000/svg" xmlns:xlink="http://www.w3.org/1999/xlink" x="0px" y="0px"
	 viewBox="0 0 2048 2048" style="enable-background:new 0 0 2048 2048;" xml:space="preserve">
<style type="text/css">
	.st0{fill:none;}
	.st1{fill:#FFFFFF;}
</style>
<g id="Layer_x0020_1">
	<rect class="st0" width="2048" height="2048"/>
	<rect x="256" y="256" class="st0" width="1536" height="1536"/>
	<rect x="256" y="256" class="st0" width="1536" height="1536"/>
	<rect x="256" y="256" class="st0" width="1536" height="1536"/>
	<path class="st1" d="M1024,256c212,0,404.1,86,543.1,224.9c139,139,224.9,331,224.9,543.1c0,212.1-86,404.1-224.9,543
		c-139,139-331,225-543.1,225c-212.1,0-404.1-86-543-225c-139-139-225-331-225-543c0-212.1,86-404.1,225-543.1
		C619.9,342,811.9,256,1024,256L1024,256z M1505.2,542.8c-123.1-123.1-293.3-199.3-481.2-199.3s-358.1,76.2-481.2,199.3
		C419.7,665.9,343.5,836.1,343.5,1024c0,187.9,76.2,358.1,199.3,481.2c123.1,123.1,293.3,199.3,481.2,199.3
		c187.9,0,358.1-76.2,481.2-199.3c123.1-123.1,199.3-293.3,199.3-481.2S1628.4,665.9,1505.2,542.8z M1250.6,1278.4
		c73.1,0,132.4-59.2,132.4-132.3c0-73.1-59.3-132.4-132.4-132.4c-72.4,0-131.1,58.2-132.3,130.4c41.8,26.1,71.1,70.4,76.4,121.8
		C1211.7,1273.9,1230.6,1278.4,1250.6,1278.4L1250.6,1278.4z M799.4,1013.7c-73.2,0-132.4,59.3-132.4,132.4
		c0,73.1,59.2,132.3,132.4,132.3c25.9,0,49.9-7.5,70.4-20.4c6.5-42.3,29.1-79.3,61.6-104.4c0.1-2.5,0.4-4.9,0.4-7.4
		C931.7,1073,872.4,1013.7,799.4,1013.7L799.4,1013.7z M1336.6,1010.9c41.7,26.1,71,70.4,76.3,121.8c17,8,35.9,12.5,55.9,12.5
		c73.1,0,132.3-59.2,132.3-132.3c0-73.1-59.2-132.3-132.3-132.3C1396.4,880.5,1337.7,938.7,1336.6,1010.9L1336.6,1010.9z
		 M1164.1,1282.7c0,73.1-59.3,132.4-132.4,132.4c-73.1,0-132.4-59.3-132.4-132.4c0-73.1,59.3-132.3,132.4-132.3
		C1104.8,1150.3,1164.1,1209.6,1164.1,1282.7z M1306.8,1287.4h-111.5c-1.2,44.6-20.2,84.7-50.3,113.6
		c83,24.7,143.8,101.7,143.8,192.8v15.6c67.6-31.3,128.7-74.3,180.7-126.3c2.3-2.3,4.5-4.5,6.7-6.8v-19.3
		C1476.2,1363.5,1400.2,1287.4,1306.8,1287.4L1306.8,1287.4z M1525,1154.2h-111.5c-1.2,44.6-20.2,84.8-50.3,113.6
		c77.6,23.1,135.8,92,143.1,175.1c59.9-71.2,104.3-155.8,128.1-248.6C1604.8,1169.3,1566.6,1154.2,1525,1154.2L1525,1154.2z
		 M918.2,1401c-29.9-28.7-48.9-68.6-50.3-112.9c-4.1-0.3-8.2-0.7-12.4-0.7H743.2c-93.4,0-169.5,76.1-169.5,169.5v21.2l4.9,4.9
		c55.9,55.9,122.2,101.3,195.9,133.1v-22.4C774.4,1502.8,835.2,1425.8,918.2,1401L918.2,1401z M1087.8,1424.1H975.5
		c-93.4,0-169.5,76.1-169.5,169.5v35.2c68,25.1,141.4,38.8,218.1,38.8c82.4,0,161.1-15.8,233.2-44.6v-29.4
		C1257.3,1500.1,1181.2,1424.1,1087.8,1424.1L1087.8,1424.1z M579.2,1149.5c20,0,39-4.6,55.9-12.6c5.4-51.4,34.6-95.7,76.3-121.8
		c-1.1-72.2-59.8-130.4-132.3-130.4c-73.1,0-132.3,59.3-132.3,132.4S506.1,1149.5,579.2,1149.5L579.2,1149.5z M684.8,1272.1
		c-30.1-28.9-49.1-69-50.3-113.7H523c-41.2,0-79,14.8-108.4,39.3c24,91.7,68.2,175.3,127.6,245.6
		C550.8,1361.9,608.4,1294.8,684.8,1272.1L684.8,1272.1z"/>
</g>
</svg>
