<?xml version="1.0" encoding="utf-8"?>
<!-- Generator: Adobe Illustrator 23.0.4, SVG Export Plug-In . SVG Version: 6.00 Build 0)  -->
<svg version="1.1" id="Layer_1" xmlns="http://www.w3.org/2000/svg" xmlns:xlink="http://www.w3.org/1999/xlink" x="0px" y="0px"
	 viewBox="0 0 2048 2048" style="enable-background:new 0 0 2048 2048;" xml:space="preserve">
<style type="text/css">
	.st0{fill:none;}
	.st1{fill-rule:evenodd;clip-rule:evenodd;fill:#FFFFFF;}
</style>
<g id="Layer_x0020_1">
	<rect class="st0" width="2048" height="2048"/>
	<rect x="256" y="256" class="st0" width="1536" height="1536"/>
	<rect x="256" y="256" class="st0" width="1536" height="1536"/>
	<g id="_253500760">
		<rect id="_253555624" x="256" y="256" class="st0" width="1536" height="1536"/>
		<g>
			<path id="_253555456" class="st1" d="M1019.1,488.7c-106.1,0-192.3,86.6-192.3,192.8c0,106.1,86.2,192.7,192.3,192.7
				c106.2,0,192.8-86.6,192.8-192.7C1211.9,575.4,1125.3,488.7,1019.1,488.7L1019.1,488.7z"/>
			<path id="_253555288" class="st1" d="M650.5,732.3c-71.7,0-130.4,58.6-130.4,130.4c0,71.6,58.7,130.3,130.4,130.3
				c71.6,0,130.3-58.7,130.3-130.3C780.8,790.9,722.1,732.3,650.5,732.3z"/>
			<path id="_253555120" class="st1" d="M1388.3,732.3c-72.1,0-130.4,58.6-130.4,130.4c0,71.6,58.3,130.3,130.4,130.3
				c71.8,0,130.4-58.7,130.4-130.3C1518.7,790.9,1460.1,732.3,1388.3,732.3z"/>
			<path id="_253554952" class="st1" d="M390.2,835.9c-48.4,0-87.5,39.1-87.5,87.5c0,48.5,39.1,87.6,87.5,87.6
				c48.4,0,87.5-39.1,87.5-87.6C477.6,875,438.6,835.9,390.2,835.9z"/>
			<path id="_253554784" class="st1" d="M394.8,1303.5c-52.4-49.5-99-105-138.8-165.3c20.9-53.8,73.3-92.1,134.2-92.1
				c14.4,0,27.5,2.7,40.5,6.4c-22.4,37.8-35.8,81.5-35.8,128.5V1303.5L394.8,1303.5z"/>
			<path id="_253554616" class="st1" d="M669.5,1484c-82.5-35.3-158.9-82.1-227.2-138.5v-125.4c0-114.9,93.6-208.1,208.6-208.1
				c20.4,0,39.6,3.8,58.2,9.3c-24.2,47.5-39.6,101.1-39.6,157.9L669.5,1484L669.5,1484z"/>
			<path id="_253554424" class="st1" d="M1321.4,1515.6c-89.4,28.4-184.6,43.7-283.4,43.7c-112.6,0-220.5-19.9-320.5-56.3v-288.9
				c0-166.3,135-301.8,301.7-301.8c166.7,0,302.3,135.5,302.3,301.8V1515.6L1321.4,1515.6z"/>
			<path id="_253501168" class="st1" d="M1596.5,1374.6c-69,51.4-145.4,93.4-227.2,124.4V1262c0-56.8-15.4-184.4-39.6-231.9
				c18.6-5.5,38.1-9.3,58.6-9.3c114.5,0,208.1,93.2,208.1,208.1L1596.5,1374.6L1596.5,1374.6z"/>
			<path id="_253501000" class="st1" d="M1792,1178.2c-43.1,58.4-92.8,111.6-148,158.5V1181c0-47-13.6-90.7-35.9-128.5
				c13-3.7,26.5-6.4,40.5-6.4C1723.8,1046.1,1786,1104.5,1792,1178.2L1792,1178.2z"/>
			<path id="_253500904" class="st1" d="M1648.7,835.9c-48.5,0-87.6,39.1-87.6,87.5c0,48.5,39.1,87.6,87.6,87.6
				c48.4,0,87.4-39.1,87.4-87.6C1736.1,875,1697,835.9,1648.7,835.9z"/>
		</g>
	</g>
</g>
</svg>
