<?xml version="1.0" encoding="utf-8"?>
<!-- Generator: Adobe Illustrator 23.0.4, SVG Export Plug-In . SVG Version: 6.00 Build 0)  -->
<svg version="1.1" id="Layer_1" xmlns="http://www.w3.org/2000/svg" xmlns:xlink="http://www.w3.org/1999/xlink" x="0px" y="0px"
	 viewBox="0 0 2048 2048" style="enable-background:new 0 0 2048 2048;" xml:space="preserve">
<style type="text/css">
	.st0{fill:none;}
	.st1{fill:#FFFFFF;}
</style>
<g id="Layer_x0020_1">
	<rect class="st0" width="2048" height="2048"/>
	<rect x="256" y="256" class="st0" width="1536" height="1536"/>
	<rect x="256" y="256" class="st0" width="1536" height="1536"/>
	<g id="_253561480">
		<rect id="_253561648" x="256" y="256" class="st0" width="1536" height="1536"/>
		<path id="_253561552" class="st1" d="M1702.7,956.1c-26-163.8-111.8-308.3-234.1-411.7c-121.1-102.3-277.9-164.1-447.7-164.1
			c-169.3,0-324.2,61.4-443.4,163.1c-121.3,103.4-206,248.3-232,412.7L256,942c29.5-186.2,125.4-350.3,262.5-467.3
			c135.3-115.4,310.8-185.1,502.3-185.1c191.9,0,369.2,69.9,506.2,185.7C1665.4,592.2,1762.5,756.1,1792,942L1702.7,956.1
			L1702.7,956.1z M393.9,912.7c0-76,62-137.8,138-137.8c76.1,0,138,61.8,138,137.8c0,76.2-61.8,138-138,138
			C456,1050.7,393.9,988.9,393.9,912.7L393.9,912.7z M1019,1306.1c124.3,0,225.6-101.3,225.6-225.6c0-124.3-101.2-225.6-225.6-225.6
			c-124.3,0-225.4,101.3-225.4,225.6C793.6,1204.9,894.7,1306.1,1019,1306.1z M1506.1,1050.7c76.2,0,138-61.8,138-137.8
			c0-76-61.8-138-138-138c-76,0-137.8,62-137.8,138C1368.3,988.9,1430.1,1050.7,1506.1,1050.7L1506.1,1050.7z M761.9,1213.3l1.9-2.2
			l-0.5-3c-11.8-77.2-52.1-139.2-113.6-174.5l-4.3-2.6l-3.4,3.6c-29.1,30.5-68.1,47.3-109.9,47.3c-41.8,0-80.7-16.8-109.8-47.3
			l-3.5-3.6l-4.5,2.4c-61.3,35.5-101.6,97.5-113.6,174.7l-0.4,3l1.9,2.2c61.3,73.4,142.9,114,229.8,114
			C618.9,1327.3,700.6,1286.8,761.9,1213.3L761.9,1213.3z M1737.5,1208.3c-11.8-77.2-52.1-139.2-113.6-174.7l-4.3-2.6l-3.5,3.6
			c-29.1,30.5-68.1,47.3-110,47.3c-41.7,0-80.9-16.8-109.8-47.3l-3.5-3.6l-4.5,2.6c-61.3,35.5-101.6,97.5-113.4,174.7l-0.5,2.8
			l1.9,2.2c61.3,73.6,142.8,114.1,229.7,114.1c86.9,0,168.5-40.7,229.8-114.1l1.9-2.2L1737.5,1208.3L1737.5,1208.3z M1211.6,1277.9
			l-7.1-4.1l-5.7,5.9c-47.5,49.9-111.3,77.2-179.6,77.2c-68.4,0-132.3-27.3-179.7-77.2l-5.7-5.9l-7.1,4.1
			c-100.4,58-166.4,159.3-185.6,285.7l-0.9,4.7l3.1,3.6c100.3,120.4,233.8,186.5,375.9,186.5c142,0,275.5-66.1,375.7-186.5l3.2-3.6
			l-0.9-4.7C1378,1437.2,1312,1335.9,1211.6,1277.9L1211.6,1277.9z"/>
	</g>
</g>
</svg>
