<?xml version="1.0" encoding="utf-8"?>
<!-- Generator: Adobe Illustrator 23.0.4, SVG Export Plug-In . SVG Version: 6.00 Build 0)  -->
<svg version="1.1" id="Layer_1" xmlns="http://www.w3.org/2000/svg" xmlns:xlink="http://www.w3.org/1999/xlink" x="0px" y="0px"
	 viewBox="0 0 512 512" style="enable-background:new 0 0 512 512;" xml:space="preserve">
<style type="text/css">
	.st0{fill:#154F7D;}
</style>
<title>001 - Insurance Document</title>
<desc>Created with Sketch.</desc>
<g id="Page-1">
	<g>
		<path id="Shape" class="st0" d="M51.2,93.9h51.2c4.7,0,8.5-3.8,8.5-8.5s-3.8-8.5-8.5-8.5H51.2c-4.7,0-8.5,3.8-8.5,8.5
			S46.5,93.9,51.2,93.9z"/>
		<path class="st0" d="M145.1,93.9h76.8c4.7,0,8.5-3.8,8.5-8.5s-3.8-8.5-8.5-8.5h-76.8c-4.7,0-8.5,3.8-8.5,8.5
			S140.4,93.9,145.1,93.9z"/>
		<path class="st0" d="M51.2,187.7h273.1c4.7,0,8.5-3.8,8.5-8.5s-3.8-8.5-8.5-8.5H51.2c-4.7,0-8.5,3.8-8.5,8.5
			S46.5,187.7,51.2,187.7z"/>
		<path class="st0" d="M51.2,221.9h119.5c4.7,0,8.5-3.8,8.5-8.5s-3.8-8.5-8.5-8.5H51.2c-4.7,0-8.5,3.8-8.5,8.5
			S46.5,221.9,51.2,221.9z"/>
		<path class="st0" d="M51.2,290.1h119.5c4.7,0,8.5-3.8,8.5-8.5s-3.8-8.5-8.5-8.5H51.2c-4.7,0-8.5,3.8-8.5,8.5
			S46.5,290.1,51.2,290.1z"/>
		<path class="st0" d="M51.2,358.4h119.5c4.7,0,8.5-3.8,8.5-8.5c0-4.7-3.8-8.5-8.5-8.5H51.2c-4.7,0-8.5,3.8-8.5,8.5
			C42.7,354.6,46.5,358.4,51.2,358.4z"/>
		<path class="st0" d="M51.2,426.7h119.5c4.7,0,8.5-3.8,8.5-8.5s-3.8-8.5-8.5-8.5H51.2c-4.7,0-8.5,3.8-8.5,8.5
			S46.5,426.7,51.2,426.7z"/>
		<path class="st0" d="M506.9,248.6l-97.3-42v-181C409.6,11.5,398.1,0,384,0H59.7C45.6,0,34.1,11.5,34.1,25.6v8.5h-8.5
			C11.5,34.1,0,45.6,0,59.7v426.7C0,500.5,11.5,512,25.6,512h324.3c6.9,0,13.5-2.8,18.3-7.8l7,5c5.3,3.8,12.4,3.8,17.7,0l82.6-58.8
			c22.9-16.2,36.5-42.5,36.6-70.6V256.4C512,253,510,249.9,506.9,248.6z M51.2,25.6c0-4.7,3.8-8.5,8.5-8.5H384
			c4.7,0,8.5,3.8,8.5,8.5v173.6l-5.1-2.2c-2.2-0.9-4.6-0.9-6.8,0l-5.1,2.2v-54.1c0-0.2-0.1-0.4-0.1-0.6c0-0.7-0.2-1.4-0.4-2.1
			c-0.1-0.2-0.1-0.4-0.1-0.6c-0.1-0.2-0.1-0.2-0.2-0.3c-0.4-0.9-1-1.8-1.7-2.5L270.6,36.6c-0.7-0.7-1.6-1.3-2.5-1.7
			c-0.1-0.1-0.2-0.1-0.3-0.2c-0.1,0-0.4-0.1-0.6-0.1c-0.7-0.2-1.4-0.4-2.1-0.4c-0.2,0-0.4-0.1-0.6-0.1H51.2V25.6z M273.1,63.3
			l73.3,73.3h-64.7c-4.7,0-8.5-3.8-8.5-8.5V63.3z M349.9,494.9H25.6c-4.7,0-8.5-3.8-8.5-8.5V59.7c0-4.7,3.8-8.5,8.5-8.5H256V128
			c0,14.1,11.5,25.6,25.6,25.6h76.8v53l-27.5,11.9c1.2-1.4,1.8-3.3,1.9-5.1c0-4.7-3.8-8.5-8.5-8.5H204.8c-4.7,0-8.5,3.8-8.5,8.5
			s3.8,8.5,8.5,8.5H323l-39.5,17.1H51.2c-4.7,0-8.5,3.8-8.5,8.5c0,4.7,3.8,8.5,8.5,8.5h204.9c0,0.1-0.1,0.3-0.1,0.4v16.7h-51.2
			c-4.7,0-8.5,3.8-8.5,8.5s3.8,8.5,8.5,8.5H256v17.1H51.2c-4.7,0-8.5,3.8-8.5,8.5c0,4.7,3.8,8.5,8.5,8.5H256v17.1h-51.2
			c-4.7,0-8.5,3.8-8.5,8.5c0,4.7,3.8,8.5,8.5,8.5H256v17.1H51.2c-4.7,0-8.5,3.8-8.5,8.5s3.8,8.5,8.5,8.5h205.9
			c0.8,5.8,2.3,11.5,4.3,17.1h-56.6c-4.7,0-8.5,3.8-8.5,8.5s3.8,8.5,8.5,8.5H270c4,6.3,8.9,12,14.3,17.1H51.2
			c-4.7,0-8.5,3.8-8.5,8.5s3.8,8.5,8.5,8.5h256l46.5,33.1C352.5,494.5,351.2,494.9,349.9,494.9z M494.9,379.8
			c-0.1,22.5-11,43.7-29.4,56.7l-81.5,58l-81.5-58c-18.4-13-29.3-34.1-29.4-56.7V262.1l15.4-6.7l0.2-0.1l95.3-41.2L494.9,262V379.8z
			"/>
		<path class="st0" d="M380.6,234.1L295.3,271c-3.1,1.4-5.1,4.4-5.1,7.8v101c0.1,17,8.4,33,22.3,42.8l66.7,47.5c3,2.1,6.9,2.1,9.9,0
			l66.7-47.5c13.9-9.8,22.2-25.8,22.3-42.8v-101c0-3.4-2-6.5-5.1-7.8l-85.3-36.9C385.2,233.2,382.8,233.2,380.6,234.1z M460.8,284.5
			v95.3c-0.1,11.5-5.7,22.3-15.1,28.9L384,452.6l-61.7-43.9c-9.4-6.6-15-17.4-15.1-28.9v-95.4l76.8-33.2L460.8,284.5z"/>
		<path class="st0" d="M337.9,360.1c-2.4-1.8-5.7-2.2-8.5-1c-2.8,1.2-4.8,3.8-5.1,6.8c-0.4,3,0.9,6,3.4,7.8l34.1,25.6
			c3.7,2.8,8.9,2.1,11.8-1.5l68.3-85.3c2.9-3.7,2.3-9.1-1.3-12s-9.1-2.3-12,1.3l-63.1,78.9L337.9,360.1z"/>
	</g>
</g>
</svg>
