<?xml version="1.0" encoding="utf-8"?>
<!-- Generator: Adobe Illustrator 23.0.4, SVG Export Plug-In . SVG Version: 6.00 Build 0)  -->
<svg version="1.1" id="Capa_1" xmlns="http://www.w3.org/2000/svg" xmlns:xlink="http://www.w3.org/1999/xlink" x="0px" y="0px"
	 viewBox="0 0 464.9 464.9" style="enable-background:new 0 0 464.9 464.9;" xml:space="preserve">
<style type="text/css">
	.st0{fill:#154F7D;}
</style>
<g>
	<g>
		<path class="st0" d="M283.9,280.9c42-17.1,69.2-58.2,68.6-103.5c0-62.3-53.8-113-120-113s-120,50.7-120,113
			c-0.7,45.3,26.6,86.4,68.6,103.5l0.9,0.5l6.4,10.4c-11.3,6.6-15.2,21.1-8.6,32.4c0.9,1.5,1.9,2.9,3.1,4.2
			c-8.9,9.8-8.2,24.9,1.5,33.8c4.4,4,10.2,6.3,16.2,6.2h64c13.2,0.1,23.9-10.6,24-23.8c0-6-2.2-11.8-6.2-16.2
			c8.9-9.7,8.2-24.7-1.4-33.5c-1.3-1.2-2.7-2.2-4.2-3.1l6.4-10.4L283.9,280.9z M264.4,352.4h-64c-4.4,0-8-3.6-8-8s3.6-8,8-8h64
			c4.4,0,8,3.6,8,8S268.8,352.4,264.4,352.4z M264.4,320.4h-64c-4.4,0-8-3.6-8-8s3.6-8,8-8h64c4.4,0,8,3.6,8,8
			S268.8,320.4,264.4,320.4z M276.6,266.7l-3.2,1.7c-1.2,0.7-2.3,1.7-3,2.9l-10.5,17.2h-3.5v-60.7l37.7-37.7l-11.3-11.3l-40,40
			c-1.5,1.5-2.3,3.5-2.3,5.7v64h-16v-64c0-2.1-0.8-4.2-2.3-5.7l-40-40l-11.3,11.3l37.7,37.7v60.7h-3.5l-10.5-17.2
			c-0.7-1.2-1.8-2.2-3-2.9l-3.2-1.7c-0.3-0.1-0.5-0.3-0.8-0.4c-36.2-14.6-59.6-49.9-59-88.9c0-53.5,46.7-97,104-97s104,43.5,104,97
			c0.6,39-22.9,74.3-59,88.9C277.1,266.4,276.9,266.5,276.6,266.7z"/>
	</g>
</g>
<g>
	<g>
		
			<rect x="80.4" y="57.6" transform="matrix(0.4472 -0.8944 0.8944 0.4472 -26.6483 125.7548)" class="st0" width="16" height="53.7"/>
	</g>
</g>
<g>
	<g>
		
			<rect x="348.1" y="76.4" transform="matrix(0.9486 -0.3164 0.3164 0.9486 -7.4535 122.9663)" class="st0" width="53.7" height="16"/>
	</g>
</g>
<g>
	<g>
		<rect x="32.4" y="168.4" class="st0" width="48" height="16"/>
	</g>
</g>
<g>
	<g>
		<rect x="384.4" y="168.4" class="st0" width="48" height="16"/>
	</g>
</g>
<g>
	<g>
		
			<rect x="61.6" y="276.4" transform="matrix(0.8944 -0.4472 0.4472 0.8944 -117.8647 69.5678)" class="st0" width="53.7" height="16"/>
	</g>
</g>
<g>
	<g>
		
			<rect x="368.4" y="257.6" transform="matrix(0.4472 -0.8944 0.8944 0.4472 -46.3482 493.9155)" class="st0" width="16" height="53.7"/>
	</g>
</g>
<g>
	<g>
		<rect x="224.4" y="8.4" class="st0" width="16" height="40"/>
	</g>
</g>
<g>
	<g>
		<path class="st0" d="M464.4,384.4v-16c-104.4,0-215.3,25.2-216,72h-32c-0.7-46.8-111.6-72-216-72v16c117.2,0,199,29.4,200,56H0.4
			v16h464v-16h-200C265.4,413.8,347.2,384.4,464.4,384.4z"/>
	</g>
</g>
<g>
	<g>
		
			<rect x="68.4" y="344.3" transform="matrix(5.260082e-02 -0.9986 0.9986 5.260082e-02 -347.4565 474.6573)" class="st0" width="16" height="152.2"/>
	</g>
</g>
<g>
	<g>
		
			<rect x="312.3" y="412.4" transform="matrix(0.9986 -5.270055e-02 5.270055e-02 0.9986 -21.6178 21.0539)" class="st0" width="152.2" height="16"/>
	</g>
</g>
</svg>
